<svg xmlns="http://www.w3.org/2000/svg" xmlns:xlink="http://www.w3.org/1999/xlink" width="900" height="900" viewBox="0 0 900 900"><defs><style>.cls-1,.cls-10,.cls-105,.cls-106,.cls-107,.cls-111,.cls-113,.cls-114,.cls-125,.cls-126,.cls-127,.cls-13,.cls-131,.cls-132,.cls-133,.cls-134,.cls-135,.cls-145,.cls-146,.cls-147,.cls-154,.cls-157,.cls-2,.cls-22,.cls-23,.cls-29,.cls-30,.cls-39,.cls-51,.cls-61,.cls-62,.cls-63,.cls-64,.cls-65,.cls-66,.cls-67,.cls-72,.cls-73,.cls-88,.cls-89,.cls-93,.cls-94,.cls-95{fill:none;}.cls-2{clip-rule:evenodd;}.cls-3{fill:url(#linear-gradient);}.cls-4{fill:url(#linear-gradient-2);}.cls-5{opacity:0.12;}.cls-6{fill:url(#linear-gradient-3);}.cls-7{clip-path:url(#clip-path);}.cls-8{fill:url(#New_Gradient_Swatch_1);}.cls-9{fill:url(#linear-gradient-4);}.cls-10,.cls-111,.cls-125,.cls-131,.cls-132,.cls-133,.cls-134,.cls-145,.cls-29{stroke:#fff;}.cls-10,.cls-105,.cls-106,.cls-107,.cls-111,.cls-112,.cls-113,.cls-114,.cls-117,.cls-120,.cls-125,.cls-126,.cls-127,.cls-13,.cls-131,.cls-132,.cls-133,.cls-134,.cls-135,.cls-145,.cls-146,.cls-147,.cls-154,.cls-157,.cls-22,.cls-23,.cls-29,.cls-30,.cls-39,.cls-51,.cls-72,.cls-73{stroke-miterlimit:10;}.cls-10,.cls-145{stroke-opacity:0.2;stroke-width:3.2px;}.cls-10,.cls-13{fill-rule:evenodd;}.cls-11{fill:url(#linear-gradient-5);}.cls-12{fill:url(#linear-gradient-6);}.cls-13,.cls-135,.cls-147,.cls-23,.cls-30,.cls-72,.cls-89{stroke:#000;}.cls-105,.cls-106,.cls-107,.cls-13,.cls-29,.cls-30,.cls-39,.cls-51,.cls-65,.cls-67,.cls-88,.cls-89{stroke-width:2.13px;}.cls-14{fill:url(#linear-gradient-7);}.cls-15{opacity:0.47;fill:url(#linear-gradient-8);}.cls-16{fill:url(#linear-gradient-9);}.cls-17{fill:url(#linear-gradient-10);}.cls-18{fill:url(#linear-gradient-11);}.cls-19{fill:url(#linear-gradient-12);}.cls-20{fill:url(#linear-gradient-13);}.cls-21{fill:url(#linear-gradient-14);}.cls-22,.cls-39,.cls-73,.cls-88{stroke:#49657a;}.cls-111,.cls-112,.cls-117,.cls-120,.cls-125,.cls-146,.cls-147,.cls-22,.cls-23,.cls-29,.cls-61,.cls-62,.cls-63,.cls-64,.cls-65,.cls-66,.cls-67,.cls-88,.cls-89,.cls-93,.cls-94,.cls-95{stroke-linecap:round;}.cls-22,.cls-23{stroke-width:2.49px;}.cls-24{fill:url(#linear-gradient-15);}.cls-111,.cls-125,.cls-131,.cls-25,.cls-29{opacity:0.2;}.cls-26{fill:#fff;}.cls-27{clip-path:url(#clip-path-2);}.cls-28{fill:url(#New_Gradient_Swatch_1-2);}.cls-31{fill:url(#linear-gradient-16);}.cls-32{clip-path:url(#clip-path-3);}.cls-33{fill:url(#New_Gradient_Swatch_1-3);}.cls-34{fill:url(#linear-gradient-17);}.cls-35{fill:url(#linear-gradient-18);}.cls-36{clip-path:url(#clip-path-4);}.cls-37{fill:url(#linear-gradient-19);}.cls-38{fill:url(#linear-gradient-20);}.cls-40{fill:url(#New_Gradient_Swatch_1-4);}.cls-41{fill:url(#linear-gradient-21);}.cls-42{fill:url(#linear-gradient-22);}.cls-43{fill:url(#linear-gradient-23);}.cls-44{fill:url(#linear-gradient-24);}.cls-45{clip-path:url(#clip-path-5);}.cls-46{fill:url(#linear-gradient-25);}.cls-47{fill:url(#linear-gradient-26);}.cls-48{clip-path:url(#clip-path-6);}.cls-49{fill:url(#linear-gradient-28);}.cls-50{fill:url(#linear-gradient-29);}.cls-51{stroke:#445f73;}.cls-52{fill:url(#New_Gradient_Swatch_1-5);}.cls-53{fill:url(#linear-gradient-30);}.cls-54{fill:url(#linear-gradient-31);}.cls-55{clip-path:url(#clip-path-7);}.cls-56{fill:url(#linear-gradient-32);}.cls-57{fill:url(#New_Gradient_Swatch_1-6);}.cls-58{fill:url(#New_Gradient_Swatch_1-7);}.cls-59{fill:url(#New_Gradient_Swatch_1-8);}.cls-60{fill:url(#New_Gradient_Swatch_1-9);}.cls-61{stroke:#696969;}.cls-61,.cls-62,.cls-63,.cls-64,.cls-65,.cls-66,.cls-67,.cls-88,.cls-89,.cls-93,.cls-94,.cls-95{stroke-linejoin:round;}.cls-61,.cls-64{stroke-width:4.26px;}.cls-62,.cls-63,.cls-65{stroke:#b0b0b0;}.cls-131,.cls-132,.cls-133,.cls-134,.cls-135,.cls-62{stroke-width:1.07px;}.cls-63{stroke-width:1.6px;}.cls-64{stroke:#636363;}.cls-66{stroke:#666;stroke-width:6.39px;}.cls-67{stroke:#b8b8b8;}.cls-68{fill:url(#linear-gradient-33);}.cls-69{clip-path:url(#clip-path-8);}.cls-70{fill:url(#linear-gradient-34);}.cls-71{fill:url(#linear-gradient-35);}.cls-72,.cls-73{stroke-width:1.82px;}.cls-74{fill:url(#New_Gradient_Swatch_1-10);}.cls-75{fill:url(#radial-gradient);}.cls-76{clip-path:url(#clip-path-9);}.cls-77{fill:url(#linear-gradient-36);}.cls-78{fill:url(#linear-gradient-37);}.cls-79{fill:url(#New_Gradient_Swatch_1-11);}.cls-80{fill:url(#radial-gradient-2);}.cls-81{fill:url(#linear-gradient-38);}.cls-82{clip-path:url(#clip-path-10);}.cls-83{fill:url(#linear-gradient-39);}.cls-84{fill:url(#linear-gradient-40);}.cls-85{fill:#1c2a36;}.cls-86{fill:url(#radial-gradient-3);}.cls-87{fill:url(#linear-gradient-41);}.cls-90{fill:url(#New_Gradient_Swatch_1-12);}.cls-91{fill:url(#radial-gradient-4);}.cls-92{fill:url(#linear-gradient-42);}.cls-93,.cls-95{stroke-width:10.65px;}.cls-93{stroke:url(#linear-gradient-43);}.cls-94{stroke-width:11.72px;stroke:url(#linear-gradient-44);}.cls-95{stroke:url(#linear-gradient-45);}.cls-96{clip-path:url(#clip-path-11);}.cls-97{fill:url(#linear-gradient-47);}.cls-98{fill:url(#linear-gradient-48);}.cls-99{clip-path:url(#clip-path-12);}.cls-100{fill:url(#linear-gradient-49);}.cls-101{fill:url(#linear-gradient-50);}.cls-102{clip-path:url(#clip-path-13);}.cls-103{fill:url(#New_Gradient_Swatch_1-13);}.cls-104{fill:url(#linear-gradient-51);}.cls-105{stroke:#53748c;}.cls-106{stroke:#283b4c;}.cls-107,.cls-113,.cls-114,.cls-126,.cls-127,.cls-154{stroke:#0e161c;}.cls-107{opacity:0.53;}.cls-108{fill:url(#linear-gradient-52);}.cls-109{clip-path:url(#clip-path-14);}.cls-110{fill:url(#linear-gradient-53);}.cls-111,.cls-113{stroke-width:2.36px;}.cls-112,.cls-117,.cls-120{stroke-width:5.91px;}.cls-112{fill:url(#linear-gradient-54);stroke:url(#linear-gradient-55);}.cls-114{stroke-width:3.1px;}.cls-115{clip-path:url(#clip-path-15);}.cls-116{fill:url(#linear-gradient-56);}.cls-117{fill:url(#linear-gradient-57);stroke:url(#linear-gradient-58);}.cls-118{clip-path:url(#clip-path-16);}.cls-119{fill:url(#linear-gradient-59);}.cls-120{fill:url(#linear-gradient-60);stroke:url(#linear-gradient-61);}.cls-121{fill:#0e161c;}.cls-122{fill:url(#New_Gradient_Swatch_1-14);}.cls-123{clip-path:url(#clip-path-17);}.cls-124{fill:url(#linear-gradient-62);}.cls-125,.cls-126{stroke-width:2.38px;}.cls-127{stroke-width:3.12px;}.cls-128{fill:url(#linear-gradient-63);}.cls-129{clip-path:url(#clip-path-18);}.cls-130{fill:url(#New_Gradient_Swatch_1-15);}.cls-132{opacity:0.15;}.cls-133{opacity:0.1;}.cls-134{opacity:0.05;}.cls-136{clip-path:url(#clip-path-19);}.cls-137{fill:url(#New_Gradient_Swatch_1-16);}.cls-138{clip-path:url(#clip-path-20);}.cls-139{fill:url(#linear-gradient-64);}.cls-140{fill:url(#linear-gradient-65);}.cls-141{fill:url(#linear-gradient-66);}.cls-142{fill:url(#linear-gradient-67);}.cls-143{fill:#49657a;}.cls-144{fill:url(#linear-gradient-68);}.cls-146{stroke:#627b8f;}.cls-146,.cls-147{stroke-width:7.46px;}.cls-148{fill:url(#linear-gradient-69);}.cls-149{opacity:0.25;}.cls-150{fill:url(#linear-gradient-70);}.cls-151{fill:url(#linear-gradient-71);}.cls-152{fill:#d9d916;}.cls-153{fill:#ff720d;}.cls-154{stroke-width:2.5px;}.cls-155{fill:#ffffa8;}.cls-156{opacity:0.6;fill:url(#linear-gradient-72);}.cls-157{stroke:#1c2a36;stroke-width:2.46px;}.cls-158{opacity:0.7;fill:url(#linear-gradient-73);}</style><linearGradient id="linear-gradient" x1="650.08" y1="602.83" x2="650.08" y2="593.23" gradientUnits="userSpaceOnUse"><stop offset="0" stop-color="#0e161c" stop-opacity="0"/><stop offset="1" stop-color="#0e161c"/></linearGradient><linearGradient id="linear-gradient-2" x1="596.86" y1="577.12" x2="503.54" y2="657.94" gradientUnits="userSpaceOnUse"><stop offset="0" stop-color="#445f73"/><stop offset="0.41" stop-color="#283b4c"/><stop offset="0.78" stop-color="#101920"/><stop offset="1" stop-color="#364c5c"/></linearGradient><linearGradient id="linear-gradient-3" x1="330.73" y1="828.52" x2="909.29" y2="709.97" gradientUnits="userSpaceOnUse"><stop offset="0" stop-color="#445f73"/><stop offset="1" stop-color="#0e161c"/></linearGradient><clipPath id="clip-path"><path class="cls-1" d="M382.8,439.5c0,3.6.2,8-3.3,8-23.7,0-79.4-17.3-78.3-61.4.1-4.6,7.6-21.5,9.9-25.7-3.5-2.1-8.8-2.7-7.2-4.9,18.3-25.7,43.4-29.3,102.2-28.1,59-15.8,119.2-15.6,161.9,8.4,42.7,6.5,83.6,35.3,94.6,82.3,0,2.5-10.2,1.7-11.9,2.5-15,36.1-44.8,51.1-65,49.5-3.3-.3-16.3-.5-19.4-4.3,1,7.2-2.3,13.8-2.9,22.6-1.8,25.9-4.3,35.2-7,43.7a9.9,9.9,0,0,1-6.8,6.5c-36.7,9.9-55.8,42.6-63.8,89.8-.5,2.9-2,5.8-4.7,6.9-15.3,6.4-34.9,3.9-45.8-1a9.9,9.9,0,0,1-5.9-9.2c.3-34.2-12.5-66.7-44.3-96.7a9.8,9.8,0,0,1-3-6.6c-.5-9,.2-32.7.2-47.4C382.4,464.5,382.8,444.6,382.8,439.5Z"/></clipPath><linearGradient id="New_Gradient_Swatch_1" x1="456.76" y1="369.49" x2="492.54" y2="607.09" gradientUnits="userSpaceOnUse"><stop offset="0" stop-color="#445f73"/><stop offset="0.32" stop-color="#2c3d4a"/><stop offset="0.67" stop-color="#283b4c"/><stop offset="1" stop-color="#0e161c"/></linearGradient><linearGradient id="linear-gradient-4" x1="437.48" y1="443.41" x2="407.78" y2="439.11" gradientTransform="matrix(1.2, -0.11, 0.09, 1, -128.19, 53.41)" gradientUnits="userSpaceOnUse"><stop offset="0" stop-color="#49657a" stop-opacity="0"/><stop offset="0.92" stop-color="#587a94"/><stop offset="1" stop-color="#6288a6"/></linearGradient><linearGradient id="linear-gradient-5" x1="466.52" y1="427.22" x2="418.01" y2="420.19" gradientTransform="matrix(0.11, 1.05, -1.21, 0.13, 906.99, -153.73)" xlink:href="#linear-gradient-4"/><linearGradient id="linear-gradient-6" x1="539.15" y1="406.03" x2="567.98" y2="469.33" xlink:href="#linear-gradient"/><linearGradient id="linear-gradient-7" x1="350.59" y1="410.2" x2="346.57" y2="426.51" xlink:href="#linear-gradient"/><linearGradient id="linear-gradient-8" x1="324.71" y1="442.67" x2="320.98" y2="400.61" xlink:href="#linear-gradient"/><linearGradient id="linear-gradient-9" x1="322.97" y1="441.61" x2="319.43" y2="401.58" xlink:href="#linear-gradient"/><linearGradient id="linear-gradient-10" x1="512.74" y1="390.94" x2="523.66" y2="303.55" xlink:href="#linear-gradient"/><linearGradient id="linear-gradient-11" x1="428" y1="586.8" x2="361.41" y2="496.47" gradientUnits="userSpaceOnUse"><stop offset="0" stop-color="#49657a" stop-opacity="0"/><stop offset="0.92" stop-color="#587a94"/><stop offset="0.93" stop-color="#5d819d"/><stop offset="0.95" stop-color="#6187a4"/><stop offset="1" stop-color="#6288a6"/></linearGradient><linearGradient id="linear-gradient-12" x1="413.92" y1="592.08" x2="413.92" y2="572" xlink:href="#linear-gradient"/><linearGradient id="linear-gradient-13" x1="445.6" y1="602.09" x2="445.6" y2="581.07" gradientTransform="matrix(-1, 0, 0, 1, 960.57, 0)" xlink:href="#linear-gradient"/><linearGradient id="linear-gradient-14" x1="554.08" y1="499.51" x2="564.75" y2="499.81" gradientTransform="matrix(1, 0, 0, 1, 0, 0)" xlink:href="#linear-gradient-4"/><linearGradient id="linear-gradient-15" x1="476.4" y1="326.57" x2="476.61" y2="347.29" gradientTransform="translate(783.5 -160.3) rotate(86.8)" xlink:href="#linear-gradient"/><clipPath id="clip-path-2"><path class="cls-2" d="M618.2,768.6c-10.7.4-24.9,11.5-17.1,35.4,4.4,13.7,58.6,26,80.1,20.6,14.8-3.7,10-18.5,5.8-23.4C675.5,787.6,652,767.3,618.2,768.6Z"/></clipPath><linearGradient id="New_Gradient_Swatch_1-2" x1="642.48" y1="776.14" x2="633.96" y2="814.02" xlink:href="#New_Gradient_Swatch_1"/><linearGradient id="linear-gradient-16" x1="647.7" y1="803.19" x2="647.7" y2="786.71" gradientTransform="matrix(0.24, 1.08, -1.07, 0.24, 1310.54, -105.33)" xlink:href="#linear-gradient"/><clipPath id="clip-path-3"><path class="cls-1" d="M113.6,796.7c19.3-19.3,50.8-28.9,88.1-25.2,0,0,33.6-.1,24.9,31.5-3.2,11.6-65.8,31.9-110.1,16.8C105.5,816.1,107,803.2,113.6,796.7Z"/></clipPath><linearGradient id="New_Gradient_Swatch_1-3" x1="161.93" y1="777.55" x2="176.75" y2="824.8" xlink:href="#New_Gradient_Swatch_1"/><linearGradient id="linear-gradient-17" x1="156.05" y1="795.74" x2="115.4" y2="793.42" gradientTransform="matrix(1, 0, 0, 1, 0, 0)" xlink:href="#linear-gradient-4"/><linearGradient id="linear-gradient-18" x1="192.45" y1="804.65" x2="192.45" y2="786.78" xlink:href="#linear-gradient"/><clipPath id="clip-path-4"><path class="cls-1" d="M370,530.3c11.9-3.7,47.9-4.5,63.2,33.1,14,34.4-1.9,65.9-9.6,70.6,0,0-80.6,38.7-116.2,43.7-19.9,2.8-53.8.4-67.6-22.4-22.5-37,15.1-67.9,15.1-67.9S305.6,550.2,370,530.3Z"/></clipPath><linearGradient id="linear-gradient-19" x1="313.44" y1="560.26" x2="353.55" y2="660.04" gradientUnits="userSpaceOnUse"><stop offset="0" stop-color="#445f73"/><stop offset="0.54" stop-color="#283b4c"/><stop offset="0.74" stop-color="#101920"/><stop offset="1" stop-color="#445f73"/></linearGradient><linearGradient id="linear-gradient-20" x1="436.12" y1="620.4" x2="428.58" y2="602.8" gradientTransform="matrix(1, -0.04, 0.04, 1, -106.55, -37.17)" xlink:href="#linear-gradient-4"/><linearGradient id="New_Gradient_Swatch_1-4" x1="235.25" y1="647.4" x2="279.92" y2="640.61" gradientTransform="translate(357 -47.1) rotate(30)" xlink:href="#New_Gradient_Swatch_1"/><linearGradient id="linear-gradient-21" x1="304.86" y1="632.68" x2="301.33" y2="623.27" gradientUnits="userSpaceOnUse"><stop offset="0" stop-color="#49657a"/><stop offset="0.22" stop-color="#445f73"/><stop offset="0.55" stop-color="#1c2a36"/><stop offset="1" stop-color="#0e161c"/></linearGradient><linearGradient id="linear-gradient-22" x1="317.46" y1="627.83" x2="313.93" y2="618.41" xlink:href="#linear-gradient-21"/><linearGradient id="linear-gradient-23" x1="375.08" y1="579.48" x2="371.55" y2="570.07" xlink:href="#linear-gradient-21"/><linearGradient id="linear-gradient-24" x1="278.94" y1="568.35" x2="276.49" y2="534.57" gradientTransform="translate(-18.8 126.6) scale(1 0.98)" xlink:href="#linear-gradient"/><clipPath id="clip-path-5"><path class="cls-1" d="M185.6,785.4a17.4,17.4,0,0,1-16-23.8c6.2-15.9,18.2-45,30.5-68.4,13.2-25.1,26.5-48.3,32.6-58.8a17.4,17.4,0,0,1,12-8.4c7.5-1.4,18.5-1.3,27.1,7.2,14.3,14.3,15.7,34.7,6.9,48.7-7,11.3-47.8,78.2-52.9,88.4a17.8,17.8,0,0,1-8.2,8.1,72.8,72.8,0,0,1-31.3,7.1Z"/></clipPath><linearGradient id="linear-gradient-25" x1="193.23" y1="679.58" x2="253.6" y2="718.64" xlink:href="#linear-gradient-19"/><linearGradient id="linear-gradient-26" x1="300.55" y1="627.62" x2="291.74" y2="607.08" gradientTransform="translate(-383.4 374.5) rotate(-38.5)" xlink:href="#linear-gradient-4"/><clipPath id="clip-path-6"><path class="cls-4" d="M485.5,640c-6.9-11.9-22.9-61.8,20-87.9,32.6-19.9,62.5-12,75.6-2.7s24.2,23.6,33.1,32.5c19,19,33.7,60.2-11,95s-76.4,11.2-88.1,1.8C501.9,668,492.4,651.9,485.5,640Z"/></clipPath><linearGradient id="linear-gradient-28" x1="599.46" y1="572" x2="499.54" y2="658.54" gradientUnits="userSpaceOnUse"><stop offset="0" stop-color="#283b4c"/><stop offset="0.24" stop-color="#445f73"/><stop offset="0.54" stop-color="#283b4c"/><stop offset="0.74" stop-color="#101920"/><stop offset="1" stop-color="#445f73"/></linearGradient><linearGradient id="linear-gradient-29" x1="574.91" y1="630.12" x2="567.31" y2="612.4" gradientTransform="matrix(0.39, 0.92, -0.92, 0.39, 907.15, -209.9)" xlink:href="#linear-gradient-4"/><linearGradient id="New_Gradient_Swatch_1-5" x1="617.38" y1="553.49" x2="576.53" y2="657.77" xlink:href="#New_Gradient_Swatch_1"/><linearGradient id="linear-gradient-30" x1="518.15" y1="623.76" x2="521.61" y2="620.58" gradientTransform="translate(172 -110.7) rotate(14.5)" xlink:href="#linear-gradient-21"/><linearGradient id="linear-gradient-31" x1="526.48" y1="634.76" x2="529.75" y2="631.29" gradientTransform="translate(174.9 -112.4) rotate(14.5)" xlink:href="#linear-gradient-21"/><clipPath id="clip-path-7"><path class="cls-1" d="M557.2,675.1c-2.6-4.4-2.8-9.5-1.7-14.5,6.8-29.8,33.3-40.9,57.7-33.1,16,5.1,34.6,121.3,36.2,133.4.1.6,3.3,19.3-12.8,22.7-11.5,2.4-21.1-2.1-26.6-5.7a17.7,17.7,0,0,1-6.7-8.4C589.2,733.2,573.7,703.2,557.2,675.1Z"/></clipPath><linearGradient id="linear-gradient-32" x1="642.14" y1="681.71" x2="580.12" y2="715.18" xlink:href="#linear-gradient-19"/><linearGradient id="New_Gradient_Swatch_1-6" x1="267.1" y1="636.52" x2="273.67" y2="676.83" gradientTransform="translate(-100.5 67.5) rotate(-9.6)" xlink:href="#New_Gradient_Swatch_1"/><linearGradient id="New_Gradient_Swatch_1-7" x1="188.65" y1="738.8" x2="193.26" y2="767.03" gradientTransform="translate(-100.5 67.5) rotate(-9.6)" xlink:href="#New_Gradient_Swatch_1"/><linearGradient id="New_Gradient_Swatch_1-8" x1="561.76" y1="661.71" x2="563.24" y2="699.69" xlink:href="#New_Gradient_Swatch_1"/><linearGradient id="New_Gradient_Swatch_1-9" x1="588.65" y1="767.31" x2="589.74" y2="795.26" gradientTransform="matrix(0.9, 0.01, 0.01, 1, 73.86, -6.83)" xlink:href="#New_Gradient_Swatch_1"/><linearGradient id="linear-gradient-33" x1="654.67" y1="603.81" x2="642.23" y2="577.7" xlink:href="#linear-gradient"/><clipPath id="clip-path-8"><path class="cls-1" d="M326.5,358.9c10.4,1.2,15,9,16.6,22.7s-3.6,23.5-10.8,26.9c-24.5,11.6-46.7,7.1-46.7,7.1l-4.1-49.7S303.3,356.2,326.5,358.9Z"/></clipPath><linearGradient id="linear-gradient-34" x1="306.88" y1="365.75" x2="312.62" y2="411.7" xlink:href="#linear-gradient-19"/><linearGradient id="linear-gradient-35" x1="308.12" y1="378.08" x2="305.35" y2="364.65" gradientTransform="matrix(1, 0.03, -0.03, 1, 12.11, -10.53)" xlink:href="#linear-gradient-4"/><linearGradient id="New_Gradient_Swatch_1-10" x1="270.27" y1="358.18" x2="285.72" y2="398.8" xlink:href="#New_Gradient_Swatch_1"/><radialGradient id="radial-gradient" cx="278.67" cy="379.92" r="26.4" gradientUnits="userSpaceOnUse"><stop offset="0.18" stop-color="#49657a"/><stop offset="0.74" stop-color="#1c2a36"/><stop offset="1" stop-color="#0e161c"/></radialGradient><clipPath id="clip-path-9"><path class="cls-1" d="M654.7,418.2c-9.5-4.1-29.1,9.5-39.2,16.6s-6.8,20,6.1,25.1c3,1.2,45.7,21.1,46.6,19.2l20-45.9C669.1,422.5,673.3,423.8,654.7,418.2Z"/></clipPath><linearGradient id="linear-gradient-36" x1="682.14" y1="524.74" x2="682.14" y2="569.48" gradientTransform="translate(-39.6 -106.6)" xlink:href="#linear-gradient-19"/><linearGradient id="linear-gradient-37" x1="712.23" y1="527.85" x2="709.05" y2="512.46" gradientTransform="matrix(0.84, 0.54, -0.54, 0.84, 334.44, -392.08)" xlink:href="#linear-gradient-4"/><linearGradient id="New_Gradient_Swatch_1-11" x1="709.34" y1="508.67" x2="720.35" y2="545.6" gradientTransform="translate(236.5 -333.7) rotate(23.6)" xlink:href="#New_Gradient_Swatch_1"/><radialGradient id="radial-gradient-2" cx="675.63" cy="445.43" r="27.38" gradientUnits="userSpaceOnUse"><stop offset="0.18" stop-color="#394f60"/><stop offset="0.39" stop-color="#2c3d4a"/><stop offset="0.74" stop-color="#1c2a36"/><stop offset="1" stop-color="#0e161c"/></radialGradient><linearGradient id="linear-gradient-38" x1="693.13" y1="487.55" x2="693.57" y2="469.37" gradientTransform="translate(1149.4 -231.3) rotate(90)" xlink:href="#linear-gradient-21"/><clipPath id="clip-path-10"><path class="cls-1" d="M709.7,488.4c1.2-15.4-6.6-22.1-20.2-24.8-17.6-3.6-24.2,5.5-28.2,11.9-5.8,9.1-16.5,62.5-13.7,62.6l48.9,10.7C705.2,524.8,708.2,509.3,709.7,488.4Z"/></clipPath><linearGradient id="linear-gradient-39" x1="654.43" y1="504.52" x2="702.97" y2="513.91" xlink:href="#linear-gradient-19"/><linearGradient id="linear-gradient-40" x1="659.55" y1="380.35" x2="656.38" y2="364.96" gradientTransform="translate(98.8 1003.2) rotate(-70.7)" xlink:href="#linear-gradient-4"/><radialGradient id="radial-gradient-3" cx="655.98" cy="540.81" r="22.86" xlink:href="#radial-gradient-2"/><linearGradient id="linear-gradient-41" x1="255.53" y1="350.9" x2="226.73" y2="377.36" gradientUnits="userSpaceOnUse"><stop offset="0" stop-color="#49657a"/><stop offset="0.22" stop-color="#445f73"/><stop offset="0.55" stop-color="#1c2a36"/><stop offset="0.72" stop-color="#0e161c"/><stop offset="1" stop-color="#445f73"/></linearGradient><linearGradient id="New_Gradient_Swatch_1-12" x1="191.68" y1="334.52" x2="214.76" y2="334.52" xlink:href="#New_Gradient_Swatch_1"/><radialGradient id="radial-gradient-4" cx="197.74" cy="324.54" r="24.67" xlink:href="#radial-gradient"/><linearGradient id="linear-gradient-42" x1="611.14" y1="568.12" x2="640.72" y2="566.16" gradientUnits="userSpaceOnUse"><stop offset="0" stop-color="#3a5162"/><stop offset="0.32" stop-color="#2c3d4a"/><stop offset="0.67" stop-color="#1c2a36"/><stop offset="1" stop-color="#0e161c"/></linearGradient><linearGradient id="linear-gradient-43" x1="688.11" y1="624.38" x2="714.73" y2="624.38" gradientTransform="translate(546.5 -358) rotate(43.2)" xlink:href="#linear-gradient-42"/><linearGradient id="linear-gradient-44" x1="700.22" y1="618.27" x2="727.82" y2="618.27" gradientTransform="translate(546.5 -358) rotate(43.2)" xlink:href="#linear-gradient-42"/><linearGradient id="linear-gradient-45" x1="711.86" y1="614.34" x2="736.04" y2="614.34" gradientTransform="translate(546.5 -358) rotate(43.2)" xlink:href="#linear-gradient-42"/><clipPath id="clip-path-11"><path class="cls-3" d="M642.8,546.3a74.9,74.9,0,0,0-25,15.7c-2.2,2.1-3,5.1-1.9,7.3,2.5,4.9,7,8.7,9.8,14.8,1.2,2.6,4.4,3.6,7.8,2.4,7.5-2.6,21.1-1,36.6-.7a10.9,10.9,0,0,0,9.5-5.8l4.3-8.4c1-2.1,1.2-8.3.4-10.1-2.5-5.9-10.7-14.1-35.3-16.1A14.5,14.5,0,0,0,642.8,546.3Z"/></clipPath><linearGradient id="linear-gradient-47" x1="642.34" y1="561.02" x2="686.43" y2="588.18" xlink:href="#linear-gradient"/><linearGradient id="linear-gradient-48" x1="748.09" y1="614.38" x2="743.71" y2="604.15" gradientTransform="translate(-122.4 -9.9) rotate(-4)" xlink:href="#linear-gradient"/><clipPath id="clip-path-12"><path class="cls-1" d="M642.8,542.2a74.9,74.9,0,0,0-25,15.7c-2.2,2.1-3,5.1-1.9,7.3,2.5,4.9,7,8.7,9.8,14.8,1.2,2.6,4.4,3.6,7.8,2.4,7.4-2.5,21.2-1,36.6-.7a10.9,10.9,0,0,0,9.5-5.8l4.3-8.4a7.1,7.1,0,0,0,.4-6c-2.5-5.9-10.7-18.1-35.3-20.1A14.5,14.5,0,0,0,642.8,542.2Z"/></clipPath><linearGradient id="linear-gradient-49" x1="642.34" y1="557" x2="686.43" y2="584.15" xlink:href="#linear-gradient-19"/><linearGradient id="linear-gradient-50" x1="749.68" y1="613.12" x2="744.72" y2="601.56" gradientTransform="translate(-122.4 -9.9) rotate(-4)" xlink:href="#linear-gradient-4"/><clipPath id="clip-path-13"><path class="cls-1" d="M167.3,261.7a10.8,10.8,0,0,0-3.3,9.1c1.8,15,8,59,36.4,59,30.3,0,36.6-44.7,36.5-61.6a12.1,12.1,0,0,0-4-8.9L205.8,235a8.1,8.1,0,0,0-11.1.2Z"/></clipPath><linearGradient id="New_Gradient_Swatch_1-13" x1="198.36" y1="279.07" x2="235.71" y2="360.05" xlink:href="#New_Gradient_Swatch_1"/><linearGradient id="linear-gradient-51" x1="197.69" y1="279.42" x2="197.69" y2="197.14" xlink:href="#linear-gradient"/><linearGradient id="linear-gradient-52" x1="199.32" y1="280.37" x2="201.98" y2="357.87" xlink:href="#linear-gradient"/><clipPath id="clip-path-14"><path class="cls-1" d="M173.6,212.8l12.3,45.4a10.4,10.4,0,1,1-20,5.4l-.2-1.1-7.3-46.4a7.8,7.8,0,0,1,15.3-3.2Z"/></clipPath><linearGradient id="linear-gradient-53" x1="171.9" y1="199.59" x2="171.9" y2="273.93" gradientUnits="userSpaceOnUse"><stop offset="0" stop-color="#49657a"/><stop offset="0.4" stop-color="#445f73"/><stop offset="0.78" stop-color="#2c3d4a"/><stop offset="1" stop-color="#0e161c"/></linearGradient><linearGradient id="linear-gradient-54" x1="156.62" y1="213.89" x2="175.14" y2="245.96" gradientTransform="matrix(1, 0, 0, 1, 0, 0)" xlink:href="#linear-gradient-4"/><linearGradient id="linear-gradient-55" x1="166.86" y1="252.18" x2="166.86" y2="211.08" gradientTransform="matrix(1, 0, 0, 1, 0, 0)" xlink:href="#linear-gradient-4"/><clipPath id="clip-path-15"><path class="cls-1" d="M205.1,189.5l4.4,58.6a10.4,10.4,0,1,1-20.7,1.6c0-.3,0-.6,0-.9l.7-58.7a7.8,7.8,0,0,1,15.6-.5Z"/></clipPath><linearGradient id="linear-gradient-56" x1="198.21" y1="169.04" x2="198.21" y2="264.79" xlink:href="#linear-gradient-53"/><linearGradient id="linear-gradient-57" x1="187.34" y1="224.77" x2="205.54" y2="256.29" gradientTransform="translate(40.3 -63.4) rotate(9.1)" xlink:href="#linear-gradient-4"/><linearGradient id="linear-gradient-58" x1="197.41" y1="262.88" x2="197.41" y2="221.53" gradientTransform="translate(40.3 -63.4) rotate(9.1)" xlink:href="#linear-gradient-4"/><clipPath id="clip-path-16"><path class="cls-1" d="M241.6,201.4l-8,58.1a10.4,10.4,0,0,1-20.6-2.8l.2-.9,13-57.2a7.8,7.8,0,0,1,15.4,2.8Z"/></clipPath><linearGradient id="linear-gradient-59" x1="229.14" y1="183.12" x2="229.14" y2="271.04" xlink:href="#linear-gradient-53"/><linearGradient id="linear-gradient-60" x1="220.06" y1="201.91" x2="235.36" y2="228.43" gradientTransform="matrix(1, 0, 0, 1, 0, 0)" xlink:href="#linear-gradient-4"/><linearGradient id="linear-gradient-61" x1="228.52" y1="237.92" x2="228.52" y2="195.24" gradientTransform="matrix(1, 0, 0, 1, 0, 0)" xlink:href="#linear-gradient-4"/><linearGradient id="New_Gradient_Swatch_1-14" x1="206.24" y1="284.14" x2="220.8" y2="311.49" gradientTransform="translate(175.9 -66.5) rotate(30)" xlink:href="#New_Gradient_Swatch_1"/><clipPath id="clip-path-17"><path class="cls-1" d="M266.5,266.7l-30.3,26a10.5,10.5,0,0,1-13.6-15.9l1.1-.8L257,254a7.9,7.9,0,0,1,9.5,12.6Z"/></clipPath><linearGradient id="linear-gradient-62" x1="220.55" y1="236.11" x2="263.84" y2="311.08" xlink:href="#linear-gradient-53"/><linearGradient id="linear-gradient-63" x1="284.62" y1="407.38" x2="285.07" y2="389.2" xlink:href="#linear-gradient-21"/><clipPath id="clip-path-18"><path class="cls-1" d="M620.4,144.9l82.5,24.9a7,7,0,0,1,4.2,9.9l-16.9,33.4a7,7,0,0,1-10,2.7L602.4,166a7,7,0,0,1-.2-11.6l12.2-8.5A7,7,0,0,1,620.4,144.9Z"/></clipPath><linearGradient id="New_Gradient_Swatch_1-15" x1="755.09" y1="239.21" x2="634.62" y2="170.61" xlink:href="#New_Gradient_Swatch_1"/><clipPath id="clip-path-19"><path class="cls-1" d="M612.4,143.7l79-35.7a6.7,6.7,0,0,1,9.2,4.4l9.4,37.1a6.7,6.7,0,0,1-5.5,8.2l-92.2,13.7a6.7,6.7,0,0,1-7.5-8.2l3.8-15.1A6.7,6.7,0,0,1,612.4,143.7Z"/></clipPath><linearGradient id="New_Gradient_Swatch_1-16" x1="738.22" y1="110" x2="542.65" y2="180.28" xlink:href="#New_Gradient_Swatch_1"/><clipPath id="clip-path-20"><path class="cls-1" d="M380,127.9c-4.1,21.1-12.6,89-12.6,89C355,278,405.7,335.2,474.2,339.5,608.5,348,622,257.6,623.8,246.9c0,0,10.5-62.2,13.9-81s5-96.4-137.1-96.4C396.3,69.6,386.3,95.6,380,127.9Z"/></clipPath><linearGradient id="linear-gradient-64" x1="399.04" y1="192.25" x2="635.2" y2="226.95" gradientUnits="userSpaceOnUse"><stop offset="0" stop-color="#445f73"/><stop offset="0.12" stop-color="#3e576a"/><stop offset="0.31" stop-color="#2d4152"/><stop offset="0.36" stop-color="#283b4c"/><stop offset="0.65" stop-color="#0e161c"/><stop offset="1" stop-color="#445f73"/></linearGradient><linearGradient id="linear-gradient-65" x1="503.77" y1="266.21" x2="503.77" y2="322.44" xlink:href="#linear-gradient"/><linearGradient id="linear-gradient-66" x1="510.82" y1="118" x2="500.81" y2="205.99" xlink:href="#linear-gradient"/><linearGradient id="linear-gradient-67" x1="509.43" y1="84.39" x2="436.71" y2="93.37" gradientTransform="translate(2.5 -13) rotate(1.4)" xlink:href="#linear-gradient-4"/><linearGradient id="linear-gradient-68" x1="428.77" y1="175.62" x2="396.53" y2="170.95" gradientUnits="userSpaceOnUse"><stop offset="0" stop-color="#49657a" stop-opacity="0"/><stop offset="0.92" stop-color="#6c96b5"/><stop offset="1" stop-color="#719ebf"/></linearGradient><linearGradient id="linear-gradient-69" x1="228.22" y1="328.2" x2="225.85" y2="321.88" gradientTransform="translate(-2.3 15.7)" xlink:href="#linear-gradient-21"/><linearGradient id="linear-gradient-70" x1="373.6" y1="166.65" x2="583.08" y2="190.81" gradientTransform="translate(-1.7 4.4) rotate(-0.5)" gradientUnits="userSpaceOnUse"><stop offset="0" stop-color="#a2977b"/><stop offset="0.01" stop-color="#b6ad93"/><stop offset="0.03" stop-color="#cfc8b1"/><stop offset="0.05" stop-color="#e1dbc6"/><stop offset="0.07" stop-color="#ece7d3"/><stop offset="0.09" stop-color="#f0ebd7"/><stop offset="0.09" stop-color="#f1ecd9"/><stop offset="0.1" stop-color="#f7f5ea"/><stop offset="0.11" stop-color="#fcfbf6"/><stop offset="0.13" stop-color="#fefefd"/><stop offset="0.19" stop-color="#fff"/><stop offset="0.45" stop-color="#fefefd"/><stop offset="0.48" stop-color="#fdfdfa"/><stop offset="0.5" stop-color="#f9f8f0"/><stop offset="0.51" stop-color="#f3f0e0"/><stop offset="0.51" stop-color="#f3f0e0"/><stop offset="0.73" stop-color="#f2eedc"/><stop offset="0.85" stop-color="#f0ebd7"/><stop offset="0.86" stop-color="#ede8d3"/><stop offset="0.95" stop-color="#d2cbb3"/><stop offset="1" stop-color="#c8c0a7"/></linearGradient><linearGradient id="linear-gradient-71" x1="489.75" y1="147.45" x2="487.76" y2="180.99" gradientUnits="userSpaceOnUse"><stop offset="0" stop-color="#a2977b"/><stop offset="0.14" stop-color="#b6ad93"/><stop offset="0.36" stop-color="#cfc8b1"/><stop offset="0.57" stop-color="#e1dbc6"/><stop offset="0.77" stop-color="#ece7d3"/><stop offset="0.96" stop-color="#f0ebd7"/></linearGradient><linearGradient id="linear-gradient-72" x1="543.03" y1="179.84" x2="563.16" y2="213.4" gradientTransform="translate(345.2 -379.5) rotate(49.5)" gradientUnits="userSpaceOnUse"><stop offset="0.12" stop-color="#fff"/><stop offset="0.27" stop-color="#fff" stop-opacity="0.8"/><stop offset="0.54" stop-color="#fff" stop-opacity="0.46"/><stop offset="0.76" stop-color="#fff" stop-opacity="0.21"/><stop offset="0.92" stop-color="#fff" stop-opacity="0.06"/><stop offset="1" stop-color="#fff" stop-opacity="0"/></linearGradient><linearGradient id="linear-gradient-73" x1="391.63" y1="172.21" x2="410.29" y2="203.3" gradientTransform="translate(285.1 -258.9) rotate(49.5)" xlink:href="#linear-gradient-72"/></defs><title>RobotNinja-Active</title><g id="Shadow"><g class="cls-5"><ellipse class="cls-6" cx="453" cy="803.5" rx="408.6" ry="26.9"/></g></g><g id="Torso"><g class="cls-7"><rect class="cls-8" x="271.6" y="297.4" width="401.6" height="352.61"/><path class="cls-9" d="M398.8,503.1c-4.8-34,2.8-97.5,8.1-109.3s7.8-18.9,27.9-19.2,17.3,12.1,12.6,26.5-15.6,64.3-7.6,98.2c2.9,12.1-18.7,19-29.7,16.9C403,514.8,399.7,509.7,398.8,503.1Z"/><path class="cls-10" d="M441.5,320.8s-35.2,5.3,27.6,62"/><path class="cls-11" d="M335.8,337.2c19.2-6.1,35.3-7,63.5-7,62.8-5.8,139.3,6.7,159.4,13.4s29.5,22.9,18.9,39.7c-7.3,11.5-27.9,20.3-49.8,12.3-17.4-6.4-94.5-20.4-157-7.1-22.3,4.8-56.7-2.4-59.5-21.3C309.8,357.3,317,343.1,335.8,337.2Z"/><path class="cls-10" d="M431.7,321.9s-34,11.4,28.8,68.1"/><path class="cls-10" d="M378.4,508.6s72.4-166.8,230.2-190.7"/><path class="cls-10" d="M379.6,529s84.1-184,241.9-207.9"/><path class="cls-12" d="M581.5,346.5c11.5,6.1,18.2,17.8,15.7,36.7-3.3,25.2-30.5,30.3-52.7,30.2A27.5,27.5,0,0,0,516.8,442c1.6,41.1-5.8,70.8-23.6,107.9-2,4.2,18.6,13.5,22.7,15.7l10.4-16.8c4.5,2.5,14.5-33.7,18.8-65.5,1.7-12.3,4.6-21.3,8.9-23.3,10.1,2,34.1,2,42.3-3.9,24.5-17.9,23.1-43.2,57.7-43.9C634.3,369.3,597.2,350.4,581.5,346.5Z"/><path class="cls-10" d="M392.2,499.6s69.3-19.2,170.9,6.7"/><path class="cls-10" d="M385.9,511.3s94.5-18.3,174.7,7.6"/><path class="cls-13" d="M379.5,503.6s69.2-163,227-186.8"/><path class="cls-13" d="M380.5,522.2s81.1-178.3,238.9-202.1"/><path class="cls-13" d="M443.6,318.6s-36.5,5.8,26.3,62.5"/><path class="cls-13" d="M433.8,319.7s-35.1,12.2,27.7,68.9"/><path class="cls-13" d="M392.9,498.8s69.1-20,170.7,5.9"/><path class="cls-13" d="M386.6,510.4s93.9-18.5,174.1,7.4"/><path class="cls-14" d="M319.1,399s10,5.6,29.1,6.2c9.5.3,20.1-2.3,23.3,15.8,1.7,9.6,7.8,22.7,7.8,22.7-24.3-3-48.3-14.3-66.7-28.7Z"/><path class="cls-15" d="M282.8,384.4c2.7,16.3,16.8,35.4,31.4,33.8s41.8-7.9,41.8-37-29.4-32.7-51.7-29.3C289.7,354.1,280,368.1,282.8,384.4Z"/><path class="cls-16" d="M283.8,387.6c2.7,16.3,16.8,32.2,31.4,30.5s37-4.6,37-33.7-24.5-32.7-46.9-29.3C290.8,357.3,281.1,371.3,283.8,387.6Z"/><path d="M664,431.8c-.9,17.1-17.7,40.6-32.1,40.6-17.2,0-55.4,10.2-67.1-2.8,10.7-10.7,23.2,2.1,39.1-25.5,20.8-36,41.4-35,48.8-33.2S664.9,414.6,664,431.8Z"/><path class="cls-17" d="M399.6,314s28.9,42.5,81.6,47.1c78.5,6.9,162.2-34.7,162.2-34.7S468.7,314,399.6,314Z"/><path class="cls-18" d="M376.6,524.9s52.7-10.7,69.3,33.3c18.7,49.5,4.4,66.3-16.4,87.1Z"/><path class="cls-19" d="M374.9,526.5s52.7-10.7,69.3,33.3c18.7,49.5,4.4,66.3-16.4,87.1Z"/><path class="cls-20" d="M556.1,535.4s-58.8-17.5-75.6,30.1c-16,45.3-.3,72.6,21.1,94Z"/><path class="cls-21" d="M566.7,470.1l-14.3-9.6s4.7,30.7-9,73.7l18.6,4.6S577,496.2,566.7,470.1Z"/><path class="cls-22" d="M642.5,399.2s-2.1-14.7-17.9-29"/><path class="cls-23" d="M643.7,398.1s-2.1-14.7-17.9-29"/><path class="cls-22" d="M625.4,403.7s-4.1-14.3-21.7-26.2"/><path class="cls-23" d="M626.3,402.5s-4.1-14.3-21.7-26.2"/><ellipse class="cls-24" cx="476.5" cy="333.9" rx="14.1" ry="32.4" transform="translate(116.8 791.1) rotate(-86.8)"/><path d="M436.1,319.6a34.4,34.4,0,0,0-4.9.1l-4.9.7a52.3,52.3,0,0,0-9.5,2.7,50.5,50.5,0,0,0-16.6,10.3,63,63,0,0,0-6.5,7.2,80.6,80.6,0,0,0-5.3,8c-1.6,2.8-3.1,5.7-4.3,8.5a71.4,71.4,0,0,0-3.1,9.1,129.9,129.9,0,0,0-4.1,38.6,150.7,150.7,0,0,0,6.6,38.5h0a3,3,0,0,1-5.7,1.9,138,138,0,0,1-7.5-40.1,133.9,133.9,0,0,1,.7-20.5,112.7,112.7,0,0,1,4-20.2,77.6,77.6,0,0,1,3.6-9.8l1.1-2.4,1.3-2.3c.8-1.5,1.8-3,2.8-4.4A61.5,61.5,0,0,1,398.1,331a63.6,63.6,0,0,1,38-12.2.4.4,0,0,1,0,.9h-.1Z"/><path d="M576.3,333.7a22.1,22.1,0,0,0-5.2.9,26.4,26.4,0,0,0-4.9,1.9,30.5,30.5,0,0,0-4.4,2.7,34.1,34.1,0,0,0-3.9,3.4,38.1,38.1,0,0,0-6,8.2A54.6,54.6,0,0,0,548,360a89.7,89.7,0,0,0-2.5,9.7c-.7,3.3-1.2,6.6-1.6,10-.2,1.7-.4,3.4-.5,5.1s-.2,3.5-.3,5.2c-.2,3.5-.3,6.9-.4,10.4a180,180,0,0,0,.7,20.6,104,104,0,0,0,3.6,20.1,49.8,49.8,0,0,0,8.8,17.7,30.7,30.7,0,0,0,16.4,10.4l-.6,3.1a33,33,0,0,1-10.6-3.3,33.6,33.6,0,0,1-9-6.8,44.3,44.3,0,0,1-6.6-9.1,65.3,65.3,0,0,1-4.5-10.1,104,104,0,0,1-4.6-21.3,177.1,177.1,0,0,1-1-21.5c0-3.6.2-7.1.4-10.7q.2-2.7.4-5.3c.1-1.8.4-3.6.5-5.4s.5-3.6.8-5.4.7-3.6,1.2-5.4a52.9,52.9,0,0,1,3.9-10.4C548.8,344.3,562.1,334.2,576.3,333.7Z"/><g class="cls-25"><path class="cls-26" d="M555.9,360.5l-.4,1.2L555,363c-.2.9-.5,1.8-.7,2.8s-.7,3.7-1,5.7c-.6,3.8-1,7.7-1.4,11.5-.2,1.9-.4,3.8-.4,5.8s-.2,3.9-.3,5.8l-.4,11.7h0a1,1,0,0,1-2,.2,85.3,85.3,0,0,1-1.5-11.9,82.1,82.1,0,0,1,.1-12,91.5,91.5,0,0,1,1.7-11.9,53.3,53.3,0,0,1,1.6-5.9c.3-1,.7-1.9,1.1-2.9l.7-1.4.9-1.5a1.4,1.4,0,0,1,2.4,1.3Z"/></g><g class="cls-25"><path class="cls-26" d="M397.6,342.2c-2.4,4.5-4.6,9.2-6.6,13.9a89.9,89.9,0,0,0-4.7,14.5q-1.8,7.5-2.9,15.1c-.3,2.5-.6,5.1-.8,7.6a59.3,59.3,0,0,0-.1,7.6h0a1,1,0,0,1-2,.3,42,42,0,0,1-1-8c-.1-2.7,0-5.3.1-8a110,110,0,0,1,2.3-15.7,65.6,65.6,0,0,1,2.1-7.8,77.2,77.2,0,0,1,3-7.4c1.1-2.4,2.4-4.8,3.7-7.1a68.4,68.4,0,0,1,4.4-6.7,1.4,1.4,0,0,1,2.3,1.5Z"/></g></g></g><g id="Legs"><g class="cls-27"><rect class="cls-28" x="571.9" y="750.2" width="135.1" height="79.19"/><path class="cls-29" d="M688.3,798.9a19.2,19.2,0,0,0-20.7-.8c-11.1,6.4-15.7,21-6.8,29.9"/><path class="cls-30" d="M686.8,798a19.2,19.2,0,0,0-20.7-.8c-11.1,6.4-15.7,21-6.8,29.9"/><ellipse class="cls-31" cx="629.9" cy="780.6" rx="11.5" ry="23.3" transform="translate(-268.5 1226.7) rotate(-77.5)"/></g><g class="cls-32"><rect class="cls-33" x="92.4" y="757.1" width="149.7" height="74.85"/><path class="cls-34" d="M115.8,805.8a29,29,0,0,1,2.8-5.5,39.2,39.2,0,0,1,3.7-4.8,37.6,37.6,0,0,1,9.6-7.9,42.6,42.6,0,0,1,11.6-4.4,40.1,40.1,0,0,1,12.1-1,1.4,1.4,0,0,1,.6,2.7H156c-3.5,1.8-7,3.4-10.4,4.9s-6.7,3.1-9.7,4.9-6,3.8-9.1,5.9-6.3,4.2-9.9,6.2h0a.8.8,0,0,1-1.1-1Z"/><path class="cls-29" d="M106.7,801.5a38.6,38.6,0,0,1,24.6-2.4c21.5,5,18.6,30.5,18.6,30.5"/><path class="cls-30" d="M107.4,800.4A38.6,38.6,0,0,1,132,798c21.5,5,18.6,30.5,18.6,30.5"/><ellipse class="cls-35" cx="192.4" cy="783.8" rx="24.8" ry="10.8"/></g><g class="cls-36"><rect class="cls-37" x="198.2" y="504.3" width="266.3" height="201.05"/><path class="cls-38" d="M276.8,582.5c8.4-7.4,78.1-52,141.2-56.5l14,15.1s-43.2,1.9-137.4,55.5C284.2,602.5,263.1,594.6,276.8,582.5Z"/><path class="cls-39" d="M440.9,533.8l-72.5,31.5a7.6,7.6,0,0,0-4.5,6L359,611.8a7.9,7.9,0,0,1-4.9,6.4l-79.8,31.6"/><path class="cls-30" d="M438.8,532.7l-72.5,31.5a7.6,7.6,0,0,0-4.5,6l-4.9,40.4a7.9,7.9,0,0,1-4.9,6.4l-79.8,31.6"/><ellipse class="cls-40" cx="266.5" cy="642.7" rx="29.3" ry="45.8" transform="translate(-285.6 219.3) rotate(-30)"/><circle class="cls-41" cx="302.6" cy="626.6" r="4.9"/><circle class="cls-42" cx="315.2" cy="621.7" r="4.9"/><circle class="cls-43" cx="372.8" cy="573.4" r="4.9"/><ellipse class="cls-44" cx="257.9" cy="654.7" rx="32.4" ry="34.8" transform="translate(-283.4 205.1) rotate(-28.8)"/></g><g class="cls-45"><rect class="cls-46" x="155.2" y="610.8" width="142.2" height="180.29"/><path class="cls-47" d="M188.6,735.7c2.3-10.9,37.5-88.2,78-128.7l29.5,5.7s-55.4,47.1-86.7,123.7C204.9,747.2,184.7,753.5,188.6,735.7Z"/><path class="cls-29" d="M267.6,619.8,229.9,683a7.9,7.9,0,0,0-1.5,6l4.9,30.1a10.6,10.6,0,0,1-.5,5.3l-10.5,29.4a7.9,7.9,0,0,1-4.6,4.7l-14.1,5.3a11.6,11.6,0,0,0-7,7.6L191,791.1"/><path class="cls-30" d="M266.7,616.4,228.9,682a7.9,7.9,0,0,0-1.5,6l4.9,30.1a10.6,10.6,0,0,1-.5,5.3l-10.5,29.4a7.9,7.9,0,0,1-4.6,4.7l-14.1,5.3a11.6,11.6,0,0,0-7,7.6L189.9,790"/></g><path class="cls-4" d="M485.5,640c-6.9-11.9-22.9-61.8,20-87.9,32.6-19.9,62.5-12,75.6-2.7s24.2,23.6,33.1,32.5c19,19,33.7,60.2-11,95s-76.4,11.2-88.1,1.8C501.9,668,492.4,651.9,485.5,640Z"/><g class="cls-48"><rect class="cls-49" x="459.2" y="511.9" width="190.5" height="198.14"/><path class="cls-50" d="M533.1,527.2c9.2,4.7,35.2,20.3,65.6,56.7a8.7,8.7,0,0,1-5,14.1l-13.4,2.6c-2.8.6-9.4-4.8-7.8-2.4s-16.9-14.9-60-51.9c-5.3-4.6-4.6-12.8,2-15.3l11.7-4.3A8.7,8.7,0,0,1,533.1,527.2Z"/><path class="cls-51" d="M482.7,538.8c.9.9,19.2,22.9,26.4,31.6a7.4,7.4,0,0,1,1.3,7.3c-2.4,6.4-6,20.6-1.5,40a24.2,24.2,0,0,0,5.6,10.8l34.8,38.6"/><path class="cls-52" d="M630,608.6c13,15.4,2.2,45.9-24.1,68s-58.2,27.6-71.2,12.1-7-50.5,17.3-74.8C579.2,586.9,617,593.2,630,608.6Z"/><path class="cls-30" d="M483.7,537.7c.9.9,19.2,22.9,26.4,31.6a7.4,7.4,0,0,1,1.3,7.3c-2.4,6.4-6,20.6-1.5,40a24.2,24.2,0,0,0,5.6,10.8l34.8,38.6"/><ellipse class="cls-53" cx="521.1" cy="621" rx="3.7" ry="4.9" transform="translate(-138.8 150.2) rotate(-14.5)"/><ellipse class="cls-54" cx="529.6" cy="631.4" rx="3.7" ry="4.9" transform="matrix(0.97, -0.25, 0.25, 0.97, -141.17, 152.63)"/></g><g class="cls-55"><rect class="cls-56" x="538.4" y="617.5" width="125.4" height="172.71"/><path class="cls-51" d="M566.5,640.8l23.1,41.9a6.6,6.6,0,0,1,.7,4.2l-2.8,18.3a13.3,13.3,0,0,0,.6,6.5l13.9,38.4a9,9,0,0,0,5.9,5.6l7.4,2.2a7.5,7.5,0,0,1,5,4.7l11.1,31.7"/><path class="cls-30" d="M567.6,639.7l23.1,41.9a6.6,6.6,0,0,1,.7,4.2l-2.8,18.3a13.3,13.3,0,0,0,.6,6.5l13.9,38.4a9,9,0,0,0,5.9,5.6l7.4,2.2a7.5,7.5,0,0,1,5,4.7l11.1,31.7"/></g><path class="cls-57" d="M272.5,682.8a10.1,10.1,0,0,1-7.6-3.8,14.7,14.7,0,0,1-2.7-11.8c1.4-8.1,7.8-14.5,14.7-14.5h.3a10.1,10.1,0,0,1,7.6,3.8,14.7,14.7,0,0,1,2.7,11.8c-1.4,8.1-7.8,14.5-14.7,14.5Z"/><path d="M276.9,653.8h.3c6.4.2,10.5,6.6,9.2,14.3s-7.3,13.6-13.6,13.6h-.3c-6.4-.2-10.5-6.6-9.2-14.3s7.3-13.6,13.6-13.6m0-2.1h0c-7.4,0-14.3,6.8-15.7,15.4a15.8,15.8,0,0,0,2.9,12.6,11.2,11.2,0,0,0,8.4,4.2h.4c7.4,0,14.3-6.7,15.7-15.4a15.8,15.8,0,0,0-2.9-12.6,11.2,11.2,0,0,0-8.4-4.2Z"/><path class="cls-58" d="M211.1,787.1a7.1,7.1,0,0,1-5.3-2.6,10.3,10.3,0,0,1-1.9-8.3c1-5.7,5.5-10.1,10.3-10.1h.2a7.1,7.1,0,0,1,5.3,2.6,10.3,10.3,0,0,1,1.9,8.3c-1,5.7-5.5,10.1-10.3,10.1Z"/><path d="M214.2,766.8h.2c4.5.1,7.4,4.6,6.5,10s-5.1,9.5-9.5,9.5h-.2c-4.5-.1-7.4-4.6-6.5-10s5.1-9.5,9.5-9.5m0-1.5h0c-5.2,0-10,4.7-11,10.8a11,11,0,0,0,2,8.9,7.8,7.8,0,0,0,5.9,2.9h.3c5.2,0,10-4.7,11-10.8a11,11,0,0,0-2-8.9,7.8,7.8,0,0,0-5.9-2.9Z"/><path class="cls-59" d="M565,688.6c-4,0-8.3-3.1-10.9-8-3.8-6.9-3.2-14.7,1.3-17.9a7,7,0,0,1,4.1-1.3c4,0,8.3,3.1,10.9,7.9,3.8,6.9,3.2,14.7-1.3,17.9a7,7,0,0,1-4.1,1.3Z"/><path d="M559.5,662.6c3.5,0,7.5,2.8,10,7.4,3.5,6.3,3,13.7-1,16.5a6,6,0,0,1-3.5,1.1c-3.5,0-7.5-2.8-10-7.4-3.5-6.3-3-13.7,1-16.5a6,6,0,0,1,3.5-1.1m0-2.1a8.2,8.2,0,0,0-4.7,1.5c-4.9,3.5-5.7,11.9-1.6,19.3,2.9,5.2,7.4,8.5,11.9,8.5a8.2,8.2,0,0,0,4.7-1.5c4.9-3.5,5.7-11.9,1.6-19.3-2.9-5.2-7.4-8.5-11.9-8.5Z"/><path class="cls-60" d="M613.8,785c-2.7,0-5.6-2.3-7.4-5.9s-2.2-10.8.8-13.1a4.4,4.4,0,0,1,2.7-.9c2.7,0,5.6,2.3,7.4,5.9s2.2,10.8-.8,13.1a4.4,4.4,0,0,1-2.7.9Z"/><path d="M609.8,765.8c2.3,0,5,2.1,6.8,5.5s2.1,10.1-.5,12.2a3.7,3.7,0,0,1-2.3.8c-2.3,0-5-2.1-6.8-5.5s-2.1-10.1.5-12.2a3.7,3.7,0,0,1,2.3-.8m0-1.5a5.2,5.2,0,0,0-3.2,1.1c-3.2,2.5-3.7,8.7-1,14s5.1,6.4,8.1,6.4a5.2,5.2,0,0,0,3.2-1.1c3.2-2.5,3.7-8.7,1-14s-5.1-6.4-8.1-6.4Z"/></g><g id="Basket"><path class="cls-61" d="M649.3,639.9s1-9.8,8.1-9.8,8.7,8.7,8.7,8.7"/><path class="cls-62" d="M649.3,639.9s1-9.8,8.1-9.8,8.7,8.7,8.7,8.7"/><line class="cls-63" x1="521.9" y1="650.3" x2="558.7" y2="748.2"/><line class="cls-63" x1="638.2" y1="641.6" x2="632.5" y2="741.3"/><line class="cls-63" x1="677.6" y1="638" x2="657.4" y2="739"/><line class="cls-63" x1="714.4" y1="635.1" x2="680.1" y2="739.7"/><line class="cls-63" x1="559.6" y1="647.1" x2="583.6" y2="745.9"/><line class="cls-64" x1="513.8" y1="719" x2="719.6" y2="703.7"/><line class="cls-65" x1="513.8" y1="719" x2="719.6" y2="703.7"/><line class="cls-62" x1="559.6" y1="771.1" x2="740.5" y2="757.4"/><line class="cls-63" x1="545.6" y1="760.5" x2="723.3" y2="746.8"/><line class="cls-63" x1="720.2" y1="747.1" x2="767.9" y2="641"/><line class="cls-63" x1="738.9" y1="756.5" x2="789.1" y2="649.3"/><line class="cls-63" x1="600.1" y1="643.8" x2="608.6" y2="743.6"/><line class="cls-64" x1="759.8" y1="768.8" x2="705.2" y2="737.9"/><line class="cls-65" x1="759.8" y1="768.8" x2="705.2" y2="737.9"/><polygon class="cls-64" points="477.8 651.7 748.9 634.2 705.2 737.9 531 750.4 477.8 651.7"/><polygon class="cls-65" points="477.8 651.7 748.9 634.2 705.2 737.9 531 750.4 477.8 651.7"/><path class="cls-61" d="M572.3,645s1-9.8,8.1-9.8,8.7,8.7,8.7,8.7"/><path class="cls-62" d="M572.3,645s1-9.8,8.1-9.8,8.7,8.7,8.7,8.7"/><line class="cls-64" x1="497.6" y1="688.1" x2="733.4" y2="671"/><line class="cls-65" x1="497.6" y1="688.1" x2="733.4" y2="671"/><line class="cls-63" x1="562.7" y1="677" x2="602.4" y2="782.6"/><line class="cls-63" x1="603.4" y1="673.5" x2="629.3" y2="780.1"/><line class="cls-63" x1="652.4" y1="669.9" x2="656.2" y2="777.6"/><line class="cls-63" x1="770.3" y1="660.6" x2="734.5" y2="769.8"/><line class="cls-63" x1="694.6" y1="667.5" x2="682" y2="775.1"/><line class="cls-62" x1="490.1" y1="660.6" x2="541.7" y2="757.4"/><line class="cls-62" x1="503.7" y1="668.3" x2="559.6" y2="771.1"/><line class="cls-63" x1="733.8" y1="663.6" x2="708.9" y2="772.7"/><polyline class="cls-64" points="497.6 688.1 538.5 712.9 794.7 694.5 733.4 671"/><polyline class="cls-65" points="497.6 688.1 538.5 712.9 794.7 694.5 733.4 671"/><polyline class="cls-64" points="513.8 718.7 556.8 749.6 776.4 732.9 719.6 703.7"/><polyline class="cls-65" points="513.8 718.7 556.8 749.6 776.4 732.9 719.6 703.7"/><line class="cls-64" x1="577.3" y1="784" x2="531" y2="750.4"/><line class="cls-65" x1="577.3" y1="784" x2="531" y2="750.4"/><line class="cls-64" x1="518.3" y1="677.8" x2="477.8" y2="651.7"/><line class="cls-65" x1="518.3" y1="677.8" x2="477.8" y2="651.7"/><line class="cls-64" x1="812.3" y1="657.3" x2="748.9" y2="634.2"/><line class="cls-65" x1="812.3" y1="657.3" x2="748.9" y2="634.2"/><path class="cls-61" d="M705.3,664.4s1-9.8,8.1-9.8,8.7,8.7,8.7,8.7"/><path class="cls-62" d="M705.3,664.4s1-9.8,8.1-9.8,8.7,8.7,8.7,8.7"/><polygon class="cls-64" points="519.9 678.7 812.3 657.3 759.8 768.8 577.3 784 519.9 678.7"/><polygon class="cls-65" points="519.9 678.7 812.3 657.3 759.8 768.8 577.3 784 519.9 678.7"/><path class="cls-61" d="M617.3,670.3s1-9.8,8.1-9.8,8.7,8.7,8.7,8.7"/><path class="cls-62" d="M617.3,670.3s1-9.8,8.1-9.8,8.7,8.7,8.7,8.7"/><path class="cls-61" d="M705.3,664.4s1-9.8,8.1-9.8,8.7,8.7,8.7,8.7"/><path class="cls-62" d="M705.3,664.4s1-9.8,8.1-9.8,8.7,8.7,8.7,8.7"/><path class="cls-66" d="M707.9,652.8c2.3,7.4,10.1,6.6,10.1,6.6s-38.5-50.6-42.3-55-7.8-8.4-13.7-11.3l-36.3-18.2c-5.8-1.8-10.2.8-9.4,3.8L654.8,634s3.8-2.5.6-7.5"/><path class="cls-67" d="M707.9,652.8c2.3,7.4,10.1,6.6,10.1,6.6s-38.5-50.6-42.3-55-7.8-8.4-13.7-11.3l-36.3-18.2c-5.8-1.8-10.2.8-9.4,3.8L654.8,634s3.8-2.5.6-7.5"/><path class="cls-66" d="M626,655.1c-5.9,8.4-.5,9.6-.5,9.6l37.7-60.3a5.5,5.5,0,0,0-1.9-8.1l-35.2-18.9a8.7,8.7,0,0,0-11.1,2.5l-38.3,58.6s5.8,2.4,10-3.9"/><path class="cls-67" d="M626,655.1c-5.9,8.4-.5,9.6-.5,9.6l37.7-60.3a5.5,5.5,0,0,0-1.9-8.1l-35.2-18.9a8.7,8.7,0,0,0-11.1,2.5l-38.3,58.6s5.8,2.4,10-3.9"/><path class="cls-68" d="M633.5,575.6l29,14.2c-1.8-.6-1.9,0-2,1.4s-6-2.1-4.4,5.8l-25.7-13.8Z"/><path class="cls-61" d="M617.3,670.3s1-9.8,8.1-9.8"/><path class="cls-62" d="M617.3,670.3s1-9.8,8.1-9.8"/><path class="cls-61" d="M705.3,664.4s.7-7.1,5.3-9.2"/><path class="cls-62" d="M705.3,664.4s.7-7.1,5.3-9.2"/><path class="cls-61" d="M572.5,643.9c.5-2.5,2.3-8.7,7.9-8.7h1.5"/><path class="cls-62" d="M572.5,643.9c.5-2.5,2.3-8.7,7.9-8.7h1.5"/></g><g id="Arms"><g class="cls-69"><rect class="cls-70" x="271" y="357" width="77.4" height="62.38"/><path class="cls-71" d="M310.5,362.5a148.9,148.9,0,0,1,34,.3l-.6,9.6c-48.1-5.6-71.3,12.6-71.6,12.8l-3.6-8.3c.8-.6,14.3-11.2,41.7-14.3"/><path class="cls-72" d="M353.1,365.8l-29,4.4c-1.9.3-3.5,1.9-4.3,4.2L317,383"/><path class="cls-73" d="M353.1,368l-29,4.4c-1.9.3-3.5,1.9-4.3,4.2l-2.9,8.5a4.2,4.2,0,0,1-2.7,2.9l-9.4,2.5a3.2,3.2,0,0,1-3.2-1L291,377.9"/><path class="cls-72" d="M353.1,365.8l-29,4.4c-1.9.3-3.5,1.9-4.3,4.2L317,383a4.2,4.2,0,0,1-2.7,2.9l-9.4,2.5a3.2,3.2,0,0,1-3.2-1L291,375.8"/></g><path class="cls-74" d="M264,392.8c2.2,13.7,12.3,23.8,22.6,22.7s16.9-13.2,14.7-26.9-12.3-23.8-22.6-22.7S261.8,379.1,264,392.8Z"/><circle class="cls-75" cx="271.5" cy="393.7" r="23"/><g class="cls-76"><rect class="cls-77" x="589.6" y="405.4" width="105.8" height="71.73" transform="translate(230.2 -220.2) rotate(23.6)"/><path class="cls-78" d="M662.7,423.7a276.5,276.5,0,0,1,39.8,23.9l-5.6,7.8c-53.5-38.2-90.1-38.8-90.5-38.8V407c1.2,0,22.5.3,56.3,16.7"/><path class="cls-39" d="M596.9,410.7l36.8,15.1a7.3,7.3,0,0,1,4.5,5.6l1.4,9.2a5.1,5.1,0,0,0,2.7,3.8l11.6,6a5.3,5.3,0,0,0,4.5.2c4.6-8.5,14.8-19.3,24.1-18.3"/><path d="M597.9,407.7l18.1,7.2,18,7.4a11,11,0,0,1,2.4,1.2,8.2,8.2,0,0,1,2,2,8.6,8.6,0,0,1,1.3,2.6,9.5,9.5,0,0,1,.3,1.4l.2,1.2.7,4.8.4,2.4v1.1a3.9,3.9,0,0,0,1.6,2.2l.4.2.5.3,1.1.6,4.3,2.3,4.3,2.3a17.7,17.7,0,0,1,2,1.4,3.9,3.9,0,0,0,2,.9h.1a2,2,0,0,1-1.3.6l-1.4-.2a13.2,13.2,0,0,1-2.3-1l-4.3-2.2-4.3-2.2-1.1-.6-.5-.3-.6-.4a6.3,6.3,0,0,1-2.6-3.5l-.2-.7v-.6l-.4-2.4-.8-4.8-.2-1.2a6.9,6.9,0,0,0-.2-1,6,6,0,0,0-.9-1.8,6.2,6.2,0,0,0-1.4-1.4,8.5,8.5,0,0,0-1.9-.9l-18-7.4-17.9-7.6Z"/></g><path class="cls-79" d="M695.5,463.6c-6.1,12.4-18.8,19.1-28.3,15s-12.3-17.6-6.1-30,18.8-19.1,28.3-15S701.6,451.2,695.5,463.6Z"/><circle class="cls-80" cx="682.8" cy="464.3" r="22.4"/><ellipse class="cls-81" cx="671" cy="462" rx="11.1" ry="5.1" transform="translate(39.5 976.7) rotate(-73.7)"/><g class="cls-82"><rect class="cls-83" x="643.4" y="445.8" width="70.3" height="126.77"/><path class="cls-84" d="M661.4,498.2A278.8,278.8,0,0,1,675.5,454l8.9,3.6c-25,60.9-17.2,96.6-17.1,96.9l-9.3,2.2c-.3-1.2-4.8-22,3.4-58.6"/><path class="cls-39" d="M702.2,460.9s2.6,19.4-1.8,35.4a3.4,3.4,0,0,0,1.3,3.7c1.8,1.3,4.2,4.2,4.2,10.4,0,.7-2.6,11.7-3.8,16.8a4.1,4.1,0,0,1-2.7,3,9.1,9.1,0,0,0-5.7,5l-4.4,16.2"/><path class="cls-30" d="M700.3,460.9s2.6,19.4-1.8,35.4a3.4,3.4,0,0,0,1.3,3.7c1.8,1.3,4.2,4.2,4.2,10.4,0,.7-2.6,11.7-3.8,16.8a4.1,4.1,0,0,1-2.7,3,9.1,9.1,0,0,0-5.7,5l-4.4,16.2"/><g class="cls-25"><path class="cls-26" d="M659.4,478a15.3,15.3,0,0,1,1.1-4.2c.3-.7.6-1.3.9-2l1.2-1.9a20.1,20.1,0,0,1,6.5-6,19.7,19.7,0,0,1,8.5-2.6,20.1,20.1,0,0,1,4.4.1l1.1.2,1,.3,2,.6a.6.6,0,0,1-.1,1.1H686l-4,.6a36.6,36.6,0,0,0-3.8.9,25.8,25.8,0,0,0-6.8,2.9,30.7,30.7,0,0,0-5.8,4.5,57.9,57.9,0,0,0-5.1,5.9h0a.6.6,0,0,1-1.1-.5Z"/></g></g><path class="cls-85" d="M668,561.8c-13.4-3.6-22.4-14.7-20.2-24.8s14.9-15.4,28.2-11.9,22.4,14.7,20.2,24.8S681.4,565.3,668,561.8Z"/><circle class="cls-86" cx="666.9" cy="553.2" r="22.4"/><path class="cls-87" d="M236.8,397.8c13.4,5.4,21.2,7.1,32-1.6s10.6-20,7.1-29.8c-5-13.7-39.1-54.5-42.5-48.1l-38.1,30.5C205.5,369.3,223.4,392.4,236.8,397.8Z"/><path class="cls-88" d="M220,323.1l24,27.6s4,8,.6,19.2a3.5,3.5,0,0,0,.8,3.4l7.7,7.8c1.4,1.4,3.4.8,5-.4,4.1-3.1,5.9-6.4,6.4-11.6l14.2,19.3"/><path class="cls-89" d="M221.1,322l24,27.6s4,8,.6,19.2a3.5,3.5,0,0,0,.8,3.4l7.7,7.8c1.4,1.4,3.1.4,4.5-1s4.8-7.3,5.8-11.2l15.3,19.5"/><path class="cls-90" d="M204.7,320.4c11.2-9,25.8-10.1,32.7-2.3s3.3,21.4-7.9,30.4-25.8,10.1-32.7,2.3S193.5,329.5,204.7,320.4Z"/><circle class="cls-91" cx="212.1" cy="328.9" r="18.3"/><path class="cls-92" d="M637.5,562.3l-16,10.6,2-4.5.7,10.5a5.3,5.3,0,0,1-10.6.7l-.7-10.5a5.3,5.3,0,0,1,1.6-4.2l.4-.3,14-13.2a7,7,0,0,1,9.5,10.1Z"/><polyline class="cls-93" points="634 567.1 621.5 574.3 621.6 584.2 628.5 590.2"/><polyline class="cls-94" points="650.5 568.1 633.2 580.4 632.9 592.4 639 597.4"/><polyline class="cls-95" points="661.8 573.9 643.4 585.7 643.4 596.4 648.7 599.9"/><path class="cls-3" d="M642.8,546.3a74.9,74.9,0,0,0-25,15.7c-2.2,2.1-3,5.1-1.9,7.3,2.5,4.9,7,8.7,9.8,14.8,1.2,2.6,4.4,3.6,7.8,2.4,7.5-2.6,21.1-1,36.6-.7a10.9,10.9,0,0,0,9.5-5.8l4.3-8.4c1-2.1,1.2-8.3.4-10.1-2.5-5.9-10.7-14.1-35.3-16.1A14.5,14.5,0,0,0,642.8,546.3Z"/><g class="cls-96"><rect class="cls-97" x="604.6" y="535" width="92" height="62.17"/><path class="cls-98" d="M623.4,563.2c4.7-4.5,44.4-31.6,81-35.4l8.4,8.5s-25.1,1.9-78.8,34.8C628.1,574.7,615.7,570.5,623.4,563.2Z"/></g><g class="cls-99"><rect class="cls-100" x="604.6" y="531" width="92" height="62.17"/><path class="cls-101" d="M623.4,559.2c4.7-4.5,44.4-31.6,81-35.4l8.4,8.5s-21.9,0-71.2,39.2C632.7,578.6,615.7,566.5,623.4,559.2Z"/></g><g class="cls-102"><rect class="cls-103" x="153.8" y="224.5" width="89.2" height="109.21"/><path class="cls-104" d="M159.9,286.7s14.5-32.5,39.3-32.5,38.2,27.9,38.2,27.9,16.3-59.8,14.2-57.7S143.5,227,143.5,227Z"/><path class="cls-105" d="M159.9,303.2s21.4-37.2,81-31.7"/><path class="cls-106" d="M159.9,301.1s21.4-37.2,81-31.7"/><path class="cls-107" d="M200.4,334s-17.2-30.8-3.7-46.9c5.1-6.1,19.4-14.6,38.1-3.9"/><path class="cls-108" d="M201.5,314.1c18.1-.6,29.7-7.6,33.4-24.4,0,0,1.1,44.7-33.3,44.7S164,278.1,164,278.1,175.2,315.1,201.5,314.1Z"/></g><g class="cls-109"><rect class="cls-110" x="152.8" y="202.9" width="38.2" height="71.67"/><path class="cls-111" d="M159.2,226.9s10.3,3,18-4.7"/><path class="cls-111" d="M161,242.4s12.2,2.5,20.8-5.2"/><line class="cls-112" x1="163.9" y1="214" x2="169.8" y2="249.2"/><path class="cls-111" d="M163.1,259s13.5,3.9,23.6-6.2"/><path class="cls-113" d="M158.2,224.6s10.3,3,18-4.7"/><path class="cls-113" d="M160,240.1s12.2,2.5,20.8-5.2"/><path class="cls-114" d="M162.1,256.6s13.5,3.9,23.6-6.2"/></g><g class="cls-115"><rect class="cls-116" x="180.6" y="172.5" width="35.3" height="92.82"/><path class="cls-111" d="M189,200.4s9.7,4.7,18.6-1.5"/><path class="cls-111" d="M188.1,216s11.6,4.6,21.4-1.5"/><line class="cls-117" x1="197.5" y1="189.2" x2="196" y2="224.9"/><path class="cls-111" d="M187.2,232.6s12.6,6.2,24.4-2"/><path class="cls-113" d="M188.5,197.9s9.7,4.7,18.6-1.5"/><path class="cls-113" d="M187.6,213.5s11.6,4.6,21.4-1.5"/><path class="cls-114" d="M186.7,230.2s12.6,6.2,24.4-2"/></g><g class="cls-118"><rect class="cls-119" x="212.9" y="186.3" width="32.4" height="85.2"/><path class="cls-111" d="M240.5,212.2s-10.3,3-18-4.7"/><line class="cls-120" x1="232.8" y1="198.2" x2="224.3" y2="235"/><path class="cls-111" d="M238.7,227.7s-12.2,2.5-20.8-5.2"/><path class="cls-111" d="M236.7,244.3s-13.5,3.9-23.6-6.2"/><path class="cls-113" d="M241.5,209.8s-10.3,3-18-4.7"/><path class="cls-113" d="M239.7,225.4s-12.2,2.5-20.8-5.2"/><path class="cls-114" d="M237.6,241.9s-13.5,3.9-23.6-6.2"/></g><ellipse class="cls-121" cx="212.4" cy="297.6" rx="21.3" ry="15.8" transform="translate(-120.4 146.1) rotate(-30)"/><ellipse class="cls-122" cx="212.1" cy="295.1" rx="20" ry="15.1" transform="translate(-119.1 145.6) rotate(-30)"/><g class="cls-123"><rect class="cls-124" x="211.3" y="251.7" width="66.5" height="51.78"/><path class="cls-125" d="M250.7,256.6s1.8,10.7,12.1,14.4"/><path class="cls-125" d="M238.1,264.6s3,12.2,13.7,16.7"/><path class="cls-125" d="M226.3,272.4s2.3,14,15.9,18.9"/><path class="cls-126" d="M252.4,254.7s1.8,10.7,12.1,14.4"/><path class="cls-126" d="M239.8,262.7s3,12.2,13.7,16.7"/><path class="cls-127" d="M228.2,270.3s2.3,14,15.9,18.9"/></g><ellipse class="cls-128" cx="284.9" cy="394.1" rx="5.1" ry="11.1"/></g><g id="Head"><g class="cls-129"><rect class="cls-130" x="584.6" y="134.2" width="138.2" height="94.51"/><line class="cls-131" x1="704.8" y1="159.9" x2="666" y2="235.5"/><line class="cls-131" x1="700.8" y1="158.7" x2="662" y2="234.2"/><line class="cls-132" x1="696.8" y1="157.4" x2="658" y2="233"/><line class="cls-133" x1="692.8" y1="156.2" x2="654" y2="231.7"/><line class="cls-133" x1="688.8" y1="154.9" x2="650" y2="230.5"/><line class="cls-134" x1="684.8" y1="153.7" x2="646" y2="229.2"/><line class="cls-135" x1="703.7" y1="159.9" x2="665" y2="235.5"/><line class="cls-135" x1="699.7" y1="158.7" x2="661" y2="234.2"/><line class="cls-135" x1="695.7" y1="157.4" x2="657" y2="233"/><line class="cls-135" x1="691.7" y1="156.2" x2="652.9" y2="231.7"/><line class="cls-135" x1="687.7" y1="154.9" x2="648.9" y2="230.5"/><line class="cls-135" x1="683.7" y1="153.7" x2="644.9" y2="229.2"/><line class="cls-135" x1="679.7" y1="152.4" x2="640.9" y2="228"/><line class="cls-135" x1="675.7" y1="151.2" x2="636.9" y2="226.7"/><line class="cls-135" x1="671.7" y1="149.9" x2="632.9" y2="225.5"/><line class="cls-135" x1="667.7" y1="148.7" x2="628.9" y2="224.2"/><line class="cls-135" x1="663.7" y1="147.4" x2="624.9" y2="223"/><line class="cls-135" x1="659.7" y1="146.2" x2="620.9" y2="221.7"/><line class="cls-135" x1="655.7" y1="144.9" x2="616.9" y2="220.5"/><line class="cls-135" x1="651.7" y1="143.7" x2="612.9" y2="219.2"/><line class="cls-135" x1="647.7" y1="142.4" x2="608.9" y2="218"/><line class="cls-135" x1="643.7" y1="141.2" x2="604.9" y2="216.7"/><line class="cls-135" x1="639.7" y1="139.9" x2="600.9" y2="215.5"/><line class="cls-135" x1="635.7" y1="138.7" x2="596.9" y2="214.2"/><line class="cls-135" x1="631.7" y1="137.4" x2="592.9" y2="213"/></g><g class="cls-136"><rect class="cls-137" x="589.1" y="97.4" width="135.1" height="83.89"/><line class="cls-131" x1="684.9" y1="97.2" x2="705.8" y2="179.5"/><line class="cls-131" x1="681.1" y1="98.9" x2="702" y2="181.2"/><line class="cls-131" x1="677.2" y1="100.6" x2="698.2" y2="182.9"/><line class="cls-131" x1="673.4" y1="102.3" x2="694.4" y2="184.7"/><line class="cls-131" x1="669.6" y1="104.1" x2="690.5" y2="186.4"/><line class="cls-131" x1="665.8" y1="105.8" x2="686.7" y2="188.1"/><line class="cls-131" x1="661.9" y1="107.5" x2="682.9" y2="189.8"/><line class="cls-131" x1="658.1" y1="109.2" x2="679" y2="191.5"/><line class="cls-132" x1="654.3" y1="110.9" x2="675.2" y2="193.2"/><line class="cls-133" x1="650.4" y1="112.6" x2="671.4" y2="194.9"/><line class="cls-134" x1="646.6" y1="114.3" x2="667.6" y2="196.7"/><line class="cls-131" x1="623.6" y1="124.6" x2="644.6" y2="206.9"/><line class="cls-135" x1="683.8" y1="97.2" x2="704.8" y2="179.5"/><line class="cls-135" x1="680" y1="98.9" x2="701" y2="181.2"/><line class="cls-135" x1="676.2" y1="100.6" x2="697.1" y2="182.9"/><line class="cls-135" x1="672.3" y1="102.3" x2="693.3" y2="184.7"/><line class="cls-135" x1="668.5" y1="104.1" x2="689.5" y2="186.4"/><line class="cls-135" x1="664.7" y1="105.8" x2="685.6" y2="188.1"/><line class="cls-135" x1="660.9" y1="107.5" x2="681.8" y2="189.8"/><line class="cls-135" x1="657" y1="109.2" x2="678" y2="191.5"/><line class="cls-135" x1="653.2" y1="110.9" x2="674.2" y2="193.2"/><line class="cls-135" x1="649.4" y1="112.6" x2="670.3" y2="194.9"/><line class="cls-135" x1="645.5" y1="114.3" x2="666.5" y2="196.7"/><line class="cls-135" x1="641.7" y1="116.1" x2="662.7" y2="198.4"/><line class="cls-135" x1="637.9" y1="117.8" x2="658.8" y2="200.1"/><line class="cls-135" x1="634.1" y1="119.5" x2="655" y2="201.8"/><line class="cls-135" x1="630.2" y1="121.2" x2="651.2" y2="203.5"/><line class="cls-135" x1="626.4" y1="122.9" x2="647.3" y2="205.2"/><line class="cls-135" x1="622.6" y1="124.6" x2="643.5" y2="206.9"/></g><g class="cls-138"><rect class="cls-139" x="329.3" y="40.5" width="346.9" height="333.97"/><path class="cls-140" d="M362.3,244.3s-.6,20.3,21.4,35.4c18.4,12.6,48,19.8,78.2,19.8,54.9,0,80.8-9,91.8-53.4,5-20.4,25.2-116.4,24.5-126.6-2.9-41.8-25.9-45.8-47.8-54.6L672.1,91.7l-40,265.6-257,11.5L335.4,261.1Z"/><path class="cls-141" d="M374.3,288.1s16,26.7,87.9,30.9c65.5,3.8,85.8-24.9,103-48s29.4-143.9,29.4-143.9-1-37.3-18.2-46.5c-7.1-3.8,29.4,4.5,44.6,49,3.5,10.4.8,113.4-28.1,151.1C543.6,345,469,350.5,469,350.5l-84-4.2Z"/><path class="cls-142" d="M414.6,91.1c20.5-3.5,55.1-21,160.9.9,3.1.6,4.4-3.9,1.5-5.3-19.2-8.9-43.2-15.1-85.8-15-24.6.1-55.9,4.4-77.7,16.2A1.7,1.7,0,0,0,414.6,91.1Z"/><path class="cls-143" d="M508.7,68.3a26.1,26.1,0,0,0-6.8,3.6,31.6,31.6,0,0,0-5.7,5.3,36.3,36.3,0,0,0-7.1,13.9,61.1,61.1,0,0,0-1.5,7.8l-1.1,8-2.2,16.1-8.9,64.4-8.8,64.4L464.3,268a110.3,110.3,0,0,0-1,16,104.5,104.5,0,0,0,1.3,16,65.2,65.2,0,0,0,4.4,15.5.3.3,0,0,1-.5.3,50.3,50.3,0,0,1-3.2-7.5,62.9,62.9,0,0,1-2.1-7.9,91.5,91.5,0,0,1-1.8-16.3,111.4,111.4,0,0,1,.8-16.4l2.2-16.1,8.7-64.4,8.8-64.4,2.3-16.1,1.2-8a63.5,63.5,0,0,1,1.6-8.1,38.6,38.6,0,0,1,7.6-14.8,33.8,33.8,0,0,1,6.2-5.7,27.9,27.9,0,0,1,7.5-3.9,1.1,1.1,0,0,1,.7,2Z"/><path class="cls-13" d="M507.4,67s-17.6,2.6-22.6,29.2C482.6,108.1,461,266.7,461,266.7s-3.1,24.5,4.1,41.9c5.3,12.8,19.9,29.6,36.4,31"/><path class="cls-144" d="M385.7,223.3c1.4-8.8,17.6-108.9,17.6-108.9.7-4.4,8.3-13.6,24-13.6s18.5,8.9,16.4,19.6-14.3,91.8-16.2,101.9S423.2,247,406.8,247C386.6,247,384.4,232.1,385.7,223.3Z"/><path class="cls-145" d="M360.9,230.8s3.9-14.1,68.3-18.5c34.2-2.3,99.6-1,137.8,5.8,43.6,7.7,55.6,23,58.8,30.5"/><path class="cls-145" d="M368,174.3s3.2-19.4,38.1-27.3c44.8-10.1,122.8-3.4,160.9,1.3,43.9,5.4,60,24.2,65.4,42.4"/><path class="cls-30" d="M368,174.3s2.7-22.1,41.5-29.9c48.7-9.9,115.5-3.7,157.5,2.8,43.7,6.8,60,24.2,65.4,42.4"/><path class="cls-30" d="M360.9,229.7s3.9-13.3,68.3-18.5c33.8-2.7,99.6-.5,137.8,5.8s55.4,21.5,58.8,29.1"/></g><polyline class="cls-146" points="438 266.7 459.7 270.6 487 268"/><polyline class="cls-147" points="438 264 459.8 267.9 487 265.4"/><ellipse class="cls-148" cx="224.4" cy="339.8" rx="2.3" ry="3.4" transform="translate(-108.9 105.9) rotate(-21.5)"/></g><g id="Eyes"><path class="cls-149" d="M434.5,182.7c-2,18.8-16.4,32.6-32.1,30.9s-26.7-18.2-24.7-37,16.4-32.6,32.1-30.9S436.5,163.9,434.5,182.7Z"/><path class="cls-150" d="M567.2,148.6a589.2,589.2,0,0,0-92.9-8.2c-38.6-.2-56.3,2.5-71,6.3-12.4,3.2-21.7,14.7-23.2,29.9-1.8,18.3,9,34.3,24.2,35.8a23.2,23.2,0,0,0,3.8.1h.5c3.7-.2,29.8-3.1,58.1-2.9,36.7.4,93.3,5.5,93.9,5.5h3.8c15.9-.4,29.5-13.2,31.2-30.2S584.7,150.4,567.2,148.6Z"/><path class="cls-151" d="M380.1,178.4c1.5-15.2,10.8-26.7,23.2-29.9,14.7-3.8,32.4-6.5,71-6.3a589.2,589.2,0,0,1,92.9,8.2c16.1,1.6,28.1,15.5,28.5,31.9.4-17.3-11.9-32.1-28.5-33.8a589.2,589.2,0,0,0-92.9-8.2c-38.6-.2-56.3,2.5-71,6.3-12.4,3.2-21.7,14.7-23.2,29.9a40.2,40.2,0,0,0-.2,5C379.9,180.5,380,179.4,380.1,178.4Z"/><path class="cls-152" d="M562.1,209.9a26,26,0,0,1-5.6-.6C542,206,532.9,191,536.3,175.7c2.9-13.1,14.2-22.6,27-22.6a26.1,26.1,0,0,1,22.5,12.8,29,29,0,0,1,3.4,21.4C586.2,200.4,574.9,209.9,562.1,209.9Z"/><path class="cls-153" d="M563.2,154.7h0a24.4,24.4,0,0,1,5.2.6c13.7,3,22.3,17.2,19.1,31.7-2.7,12.3-13.4,21.3-25.4,21.3a24.4,24.4,0,0,1-5.2-.6c-13.7-3-22.3-17.2-19.1-31.7,2.7-12.3,13.4-21.3,25.4-21.3m0-3.2c-13.3,0-25.4,9.7-28.5,23.8-3.6,16.2,6.1,32.1,21.5,35.5a27.5,27.5,0,0,0,5.9.6c13.3,0,25.4-9.7,28.5-23.8,3.6-16.2-6.1-32.1-21.5-35.5a27.5,27.5,0,0,0-5.9-.6Z"/><ellipse class="cls-154" cx="562.7" cy="181.5" rx="30" ry="28.7" transform="translate(264.4 691.9) rotate(-77.6)"/><path d="M560.8,202.6a19.6,19.6,0,0,1-16.9-9.6,21.6,21.6,0,0,1-2.6-15.9c2.1-9.7,10.6-16.8,20.2-16.8a19.6,19.6,0,0,1,16.9,9.6,21.6,21.6,0,0,1,2.6,15.9C578.8,195.6,570.3,202.6,560.8,202.6Z"/><path class="cls-153" d="M561.5,161.1a18.7,18.7,0,0,1,4,.4c10.5,2.3,17,13.1,14.6,24.1s-10.3,16.2-19.4,16.2a18.7,18.7,0,0,1-4-.4c-10.5-2.3-17-13.1-14.6-24.1s10.3-16.2,19.4-16.2m0-1.6h0c-9.9,0-18.7,7.3-21,17.5a22.4,22.4,0,0,0,2.7,16.5,20.5,20.5,0,0,0,17.6,10c9.9,0,18.7-7.3,21-17.5,2.6-11.9-4.5-23.6-15.9-26.1a20.4,20.4,0,0,0-4.4-.5Z"/><path class="cls-155" d="M549.4,161.1l-.7.2a25.2,25.2,0,0,0-5.3,5.3,1.2,1.2,0,0,0,.3,1.7l.7.2a1.2,1.2,0,0,0,1-.5,22.7,22.7,0,0,1,4.8-4.8,1.2,1.2,0,0,0-.7-2.2ZM541,172.4a1.2,1.2,0,0,0-1.1.8v.2h-.1q-.4,1.2-.7,2.4h-.2l-.2,1.1h-.1q-.1.6-.1,1.3a1.2,1.2,0,0,0,1.1,1.3h.1a1.2,1.2,0,0,0,1.2-1.1,24.1,24.1,0,0,1,1.4-6.7,1.2,1.2,0,0,0-.7-1.5Zm-.8,14.1h-.3a1.2,1.2,0,0,0-.9,1.4,25.3,25.3,0,0,0,.8,2.6h1.7l.3.6a1.2,1.2,0,0,0,1,.6l.6-.2a1.2,1.2,0,0,0,.4-1.6,22.7,22.7,0,0,1-2.5-6.3,1.2,1.2,0,0,0-1.2-.9Zm7.2,12.1a1.2,1.2,0,0,0-.8,2.1,23.2,23.2,0,0,0,3,2.2h1l2.4,1.2h.5a1.2,1.2,0,0,0,.5-2.3,20.6,20.6,0,0,1-5.7-3.6,1.2,1.2,0,0,0-.8-.3Zm19.9,4.8H567a20.6,20.6,0,0,1-5.2.7h-1.6a1.2,1.2,0,0,0-.1,2.4h4.2l3.3-.6a1.2,1.2,0,0,0-.3-2.4Zm11.9-7.6a1.2,1.2,0,0,0-.9.4,22.6,22.6,0,0,1-5.1,4.5,1.2,1.2,0,0,0,.6,2.2l.6-.2a25,25,0,0,0,5.6-4.9,1.2,1.2,0,0,0-.9-2Zm5.6-13a1.2,1.2,0,0,0-1.2,1.1c-.1.7-.2,1.5-.4,2.2a24,24,0,0,1-1.4,4.3,1.2,1.2,0,0,0,.6,1.6h.5a1.2,1.2,0,0,0,1.1-.7,26.2,26.2,0,0,0,1.4-4.1h.2v-.3h0v-.2h0l.2-1.4a1.2,1.2,0,0,0-1-1.3ZM582.4,169h-.5a1.2,1.2,0,0,0-.5,1.6,22.8,22.8,0,0,1,2.1,6.4,1.2,1.2,0,0,0,1.2,1h.2a1.2,1.2,0,0,0,1-1.4,25.4,25.4,0,0,0-1-4h-.1v-.2h-.9l-.3-.5a1.2,1.2,0,0,0-1.1-.7Zm-9.8-10a1.2,1.2,0,0,0-.5,2.3,20.7,20.7,0,0,1,5.4,4,1.2,1.2,0,0,0,1.7-1.7,23.3,23.3,0,0,0-4.1-3.4h-1.6l-.3-.2Zm-9.9-2.4h-.6a23.1,23.1,0,0,0-6.8,1.2,1.2,1.2,0,0,0,.4,2.3h.4a20.6,20.6,0,0,1,6.6-1.1h0l2.9.2h.2a1.2,1.2,0,0,0,.2-2.4l-1.7-.2h-1.6Z"/><ellipse class="cls-156" cx="554.1" cy="169.9" rx="19.6" ry="13.4" transform="translate(17.1 387.9) rotate(-39.1)"/><ellipse class="cls-26" cx="548.7" cy="164.9" rx="4.3" ry="5.2"/><path class="cls-152" d="M406.1,206.6a18.6,18.6,0,0,1-3.6-.4c-5.8-1.2-10.7-5-13.8-10.8a30.2,30.2,0,0,1-2.7-20.2c2.6-13.1,12.5-22.6,23.6-22.6a18.6,18.6,0,0,1,3.6.4c5.8,1.2,10.7,5,13.8,10.8a30.2,30.2,0,0,1,2.7,20.2C427,197.1,417.1,206.6,406.1,206.6Z"/><path class="cls-153" d="M409.5,151v3.2a16.9,16.9,0,0,1,3.3.3c11.2,2.2,18,15.3,15.3,29.1-2.4,12.2-11.9,21.4-22,21.4a16.9,16.9,0,0,1-3.3-.3c-11.2-2.2-18-15.3-15.3-29.1,2.4-12.2,11.9-21.4,22-21.4V151m0,0c-11.5,0-22.3,9.9-25.1,23.9-3.1,15.6,4.9,30.3,17.8,32.9a20.1,20.1,0,0,0,3.9.4c11.5,0,22.3-9.9,25.1-23.9,3.1-15.6-4.9-30.3-17.8-32.9a20.1,20.1,0,0,0-3.9-.4Z"/><ellipse class="cls-157" cx="407.8" cy="179.6" rx="28.8" ry="23.9" transform="translate(151.9 544.4) rotate(-78.7)"/><path d="M405.3,200.7l-2.9-.3c-9.4-1.9-15.2-12.6-13-23.8s9.7-17.3,18.2-17.3l2.9.3a16,16,0,0,1,10.9,8.4,22.9,22.9,0,0,1,2.1,15.4C421.5,193.5,413.8,200.7,405.3,200.7Z"/><path class="cls-153" d="M407.6,160.2l2.7.3c9,1.8,14.5,12,12.4,22.8s-9.4,16.6-17.4,16.6l-2.7-.3c-9-1.8-14.5-12-12.4-22.8s9.4-16.6,17.4-16.6m0-1.6h0c-9,0-17,7.5-19.1,17.9a23.7,23.7,0,0,0,2.2,15.9,16.8,16.8,0,0,0,11.5,8.9,15.6,15.6,0,0,0,3.1.3c9,0,17-7.5,19.1-17.9a23.7,23.7,0,0,0-2.2-15.9,16.8,16.8,0,0,0-11.5-8.9,15.6,15.6,0,0,0-3-.3Z"/><path class="cls-155" d="M395.4,161a1.1,1.1,0,0,0-.8.3l-1.6,1.8h-.7v.2h0a27.2,27.2,0,0,0-2.2,3.5,1.1,1.1,0,0,0,.5,1.5h.5a1.1,1.1,0,0,0,1-.6,24,24,0,0,1,4.3-5.7,1.1,1.1,0,0,0-.8-2Zm-7.1,13a1.1,1.1,0,0,0-1.1.9v.4h-.2q-.3,1.4-.4,2.8h-.1q-.1,1.5,0,2.9a1.1,1.1,0,0,0,1.1,1.1h0a1.1,1.1,0,0,0,1.1-1.2,27.2,27.2,0,0,1,.5-6.4l.2-.8a1.1,1.1,0,0,0-.9-1.4Zm.6,14.9h-.4a1.1,1.1,0,0,0-.7,1.5,23.7,23.7,0,0,0,2.8,5.7h.5l.3.4a1.1,1.1,0,0,0,.9.4l.7-.2a1.1,1.1,0,0,0,.2-1.6,21,21,0,0,1-3.3-6.2,1.1,1.1,0,0,0-1.1-.8Zm9.1,11.3a1.1,1.1,0,0,0-.5,2.2,17.3,17.3,0,0,0,4.4,1.7h.7l2.4.3h0a1.1,1.1,0,0,0,0-2.3l-2.3-.3a15.1,15.1,0,0,1-4.2-1.5Zm20.4-3.4a1.1,1.1,0,0,0-.8.3,19.6,19.6,0,0,1-5.9,3.8,1.1,1.1,0,0,0,.4,2.2h.4a21.5,21.5,0,0,0,5.4-3.3h1.1a1.1,1.1,0,0,0-.8-2Zm7.4-12.8a1.1,1.1,0,0,0-1.1.9,26.6,26.6,0,0,1-2.7,6.7,1.1,1.1,0,0,0,.4,1.6l.6.2a1.1,1.1,0,0,0,1-.6l.5-.9H426v-.2h.6l.3-.9a1.1,1.1,0,0,0-.8-1.4Zm-.3-14.9h-.3a1.1,1.1,0,0,0-.8,1.4,25,25,0,0,1,1.1,7.1,1.1,1.1,0,0,0,1.1,1.1h0a1.1,1.1,0,0,0,1.1-1.2v-.4h0a27.2,27.2,0,0,0-1.2-6.7,1.1,1.1,0,0,0-1.1-.8Zm-8.7-11.6a1.1,1.1,0,0,0-.6,2.1,17.1,17.1,0,0,1,5.1,4.7,1.1,1.1,0,0,0,.9.5l.7-.2a1.1,1.1,0,0,0,.2-1.6,19.4,19.4,0,0,0-5.7-5.3l-.6-.2Zm-8.3-2.3h-5.9l-1.7.7a1.1,1.1,0,0,0,.5,2.2h.5a16.1,16.1,0,0,1,6.7-1.5H410a1.1,1.1,0,0,0,.1-2.3h-1.4Z"/><ellipse class="cls-158" cx="402.1" cy="168.9" rx="18.1" ry="12.4" transform="translate(-2.2 332.6) rotate(-44.8)"/><ellipse class="cls-26" cx="396.2" cy="161.5" rx="4.6" ry="3.8" transform="translate(200 541.6) rotate(-84.9)"/><ellipse class="cls-26" cx="402.1" cy="169.6" rx="2.6" ry="2.1" transform="translate(197.3 554.9) rotate(-84.9)"/></g></svg>